<svg xmlns="http://www.w3.org/2000/svg" width="48" height="48" viewBox="0 0 48 48" fill="none">
  <rect width="48" height="48" rx="12" fill="#DDE2EC"/>
  <path d="M21.8573 46.0812C33.3765 46.0812 42.7147 36.6469 42.7147 25.0091C42.7147 13.3713 33.3765 3.93701 21.8573 3.93701C10.3382 3.93701 1 13.3713 1 25.0091C1 36.6469 10.3382 46.0812 21.8573 46.0812Z" fill="#DDE2EC"/>
  <path d="M4.67773 37.1167C6.62074 39.9429 9.21197 42.252 12.2302 43.8467C15.2483 45.4414 18.6038 46.2743 22.0098 46.2743C25.4158 46.2743 28.7712 45.4414 31.7894 43.8467C34.8075 42.252 37.3988 39.9429 39.3418 37.1167H4.67773Z" fill="#A3BECF"/>
  <path d="M24.7595 15.478C29.0449 15.478 32.5189 12.0132 32.5189 7.73902C32.5189 3.46488 29.0449 0 24.7595 0C20.474 0 17 3.46488 17 7.73902C17 12.0132 20.474 15.478 24.7595 15.478Z" fill="#6F388C"/>
  <path d="M24.7319 13.2548C27.7821 13.2548 30.2548 10.7821 30.2548 7.7319C30.2548 4.68168 27.7821 2.20898 24.7319 2.20898C21.6817 2.20898 19.209 4.68168 19.209 7.7319C19.209 10.7821 21.6817 13.2548 24.7319 13.2548Z" fill="#9460AF"/>
  <path d="M27.9954 4.2549L27.2382 3.02325C27.1957 2.95391 27.136 2.89662 27.0649 2.8569C26.9938 2.81717 26.9137 2.79634 26.8321 2.79639H22.8355C22.7575 2.79597 22.6805 2.81463 22.6113 2.85075C22.5422 2.88686 22.4829 2.93933 22.4388 3.00357L21.5332 4.35953C21.4838 4.43346 21.4561 4.51971 21.4534 4.60851C21.4506 4.69731 21.4728 4.7851 21.5176 4.86193L23.3788 8.05242C23.4212 8.12465 23.4819 8.18449 23.5548 8.22594C23.6277 8.26739 23.7103 8.289 23.7942 8.2886H25.618C25.7016 8.28932 25.784 8.26818 25.8569 8.22729C25.9298 8.1864 25.9906 8.12718 26.0334 8.05553L28.0068 4.74073C28.0488 4.66618 28.0699 4.58173 28.0679 4.49625C28.0658 4.41078 28.0408 4.32741 27.9954 4.2549Z" fill="white"/>
  <path d="M26.136 10.4913C26.1024 10.466 26.0616 10.4524 26.0196 10.4524C25.9777 10.4524 25.9368 10.466 25.9033 10.4913C25.6685 10.6451 25.4871 10.8677 25.384 11.1283C25.3507 11.2095 25.309 11.2869 25.2594 11.3593C25.2167 11.4363 25.1495 11.4968 25.0684 11.5314C24.9873 11.5659 24.897 11.5724 24.8117 11.5499C24.7159 11.531 24.6279 11.484 24.5589 11.415C24.4899 11.346 24.4431 11.2581 24.4243 11.1625C24.4086 11.1007 24.4073 11.0362 24.4206 10.9738C24.434 10.9115 24.4615 10.853 24.5012 10.8031C24.6102 10.6684 24.7307 10.5431 24.8502 10.4167C24.9696 10.2903 25.1171 10.1463 25.2438 10.0023C25.2977 9.94783 25.3461 9.88815 25.3882 9.82415V8.9043H24.1283V9.8138C24.0607 9.8478 24.0027 9.89841 23.9601 9.96089C23.8801 10.0728 23.7783 10.1681 23.6911 10.2717C23.5373 10.4462 23.4245 10.6526 23.3607 10.8761C23.297 11.0995 23.2839 11.3343 23.3224 11.5634C23.4096 12.0679 23.7461 12.3776 24.2031 12.5537C24.7577 12.7681 25.2843 12.7049 25.7444 12.3103C25.8606 12.2199 25.9525 12.1022 26.0118 11.9677C26.071 11.8331 26.0959 11.686 26.084 11.5396C26.0723 11.2806 26.1075 11.0216 26.1879 10.7751C26.1952 10.7513 26.2035 10.7274 26.2097 10.7036C26.2205 10.6649 26.2192 10.6239 26.206 10.586C26.1928 10.5481 26.1684 10.515 26.136 10.4913Z" fill="white"/>
  <mask id="mask0_1035_21133" style="mask-type:alpha" maskUnits="userSpaceOnUse" x="1" y="3" width="42" height="44">
    <path d="M21.8573 46.0812C33.3765 46.0812 42.7147 36.6469 42.7147 25.0091C42.7147 13.3713 33.3765 3.93701 21.8573 3.93701C10.3382 3.93701 1 13.3713 1 25.0091C1 36.6469 10.3382 46.0812 21.8573 46.0812Z" fill="#DDE2EC"/>
    <path d="M4.67773 37.1167C6.62074 39.9429 9.21197 42.252 12.2302 43.8467C15.2483 45.4414 18.6038 46.2743 22.0098 46.2743C25.4158 46.2743 28.7712 45.4414 31.7894 43.8467C34.8075 42.252 37.3988 39.9429 39.3418 37.1167H4.67773Z" fill="#A3BECF"/>
  </mask>
  <g mask="url(#mask0_1035_21133)">
    <path d="M41.2021 37.962C41.0986 36.0305 39.9943 34.5222 38.7376 34.5918H38.6921C38.6163 34.5863 38.5403 34.5863 38.4646 34.5918C38.3006 34.6303 38.1313 34.6398 37.9642 34.6196C36.7064 34.6903 35.7715 36.3123 35.875 38.2449C35.9785 40.1776 37.0828 41.6847 38.3395 41.6152C38.4234 41.6104 38.5067 41.5983 38.5886 41.5792C38.672 41.5889 38.7561 41.5916 38.8399 41.5874H38.8854C38.9593 41.5926 39.0334 41.5926 39.1072 41.5874C40.3707 41.5166 41.3055 39.8935 41.2021 37.962Z" fill="#14512D"/>
    <path d="M30.4923 39.9302L26.6389 38.1693C26.5444 38.126 26.4399 38.1063 26.3353 38.1119C26.2306 38.1176 26.1291 38.1484 26.0403 38.2016C25.9516 38.2548 25.8784 38.3285 25.8277 38.416C25.777 38.5034 25.7504 38.6017 25.7504 38.7016C25.7505 38.7888 25.7302 38.8751 25.6911 38.954C25.652 39.0329 25.595 39.1026 25.5242 39.1581C25.4534 39.2135 25.3706 39.2533 25.2818 39.2746C25.1929 39.2959 25.1002 39.2982 25.0103 39.2813L20.6922 38.464C20.5516 38.4371 20.4251 38.3647 20.3342 38.259C20.2433 38.1533 20.1936 38.0209 20.1936 37.8843V37.6813C20.1933 37.5335 20.135 37.3912 20.0301 37.2823C19.9253 37.1734 19.7814 37.1058 19.6269 37.0929L0.160426 35.3547C0.00599226 35.342 -0.137855 35.2747 -0.24275 35.166C-0.347644 35.0572 -0.405973 34.915 -0.40625 34.7674V33.7439L22.3288 34.3021H30.1818C30.2747 34.302 30.3665 34.3218 30.4503 34.3601C30.534 34.3985 30.6077 34.4543 30.6657 34.5234L31.2324 35.2014C31.2888 35.2685 31.3292 35.3466 31.3508 35.4301C31.3723 35.5137 31.3745 35.6007 31.3571 35.6851L30.4923 39.9302Z" fill="#0F4927"/>
    <path d="M38.2493 19.3192C38.4626 18.9106 38.2335 18.4187 38.2493 17.9618C38.2506 17.8263 38.2156 17.693 38.1478 17.5757H23.9339L23.3516 34.539L30.7999 34.1912L34.1855 26.3483L38.2493 19.3192Z" fill="#A9B5C3"/>
    <path d="M44.9222 27.5579H33.3667C33.2053 27.5579 33.047 27.6004 32.9094 27.6806C32.7718 27.7608 32.6602 27.8755 32.5871 28.0122C32.5139 28.1489 32.4821 28.3021 32.495 28.455C32.5079 28.6078 32.5651 28.7543 32.6602 28.8781L33.109 29.4629C33.2187 29.6048 33.2777 29.7764 33.2772 29.9524V33.3964C33.2771 33.608 33.362 33.8116 33.5146 33.9658C33.6672 34.1199 33.8759 34.213 34.0983 34.226L45.0606 34.8674C45.1822 34.8744 45.304 34.8572 45.4183 34.817C45.5325 34.7767 45.6366 34.7143 45.724 34.6337C45.8114 34.553 45.8801 34.456 45.9257 34.3487C45.9714 34.2414 45.9929 34.1263 45.9891 34.0106L45.7969 28.3613C45.7895 28.1458 45.6941 27.9414 45.5308 27.7915C45.3676 27.6415 45.1493 27.5577 44.9222 27.5579Z" fill="url(#paint0_linear_1035_21133)"/>
    <path d="M30.4644 34.8682H29.7334L29.1145 33.8309L25.7446 33.5708C25.4384 33.5462 25.1525 33.4038 24.9439 33.1718C24.7353 32.9399 24.6193 32.6355 24.6191 32.3194V20.7048C24.6193 20.3116 24.7665 19.9335 25.0302 19.6489C25.2939 19.3644 25.6539 19.1952 26.0355 19.1765L32.8309 18.8401V28.7379L33.3362 29.3849L33.8986 34.3058L30.4644 34.8682Z" fill="url(#paint1_linear_1035_21133)"/>
    <path d="M30.5332 40.239V34.6844C30.5332 34.6196 30.546 34.5554 30.5709 34.4955C30.5958 34.4356 30.6324 34.3812 30.6784 34.3354C30.7244 34.2896 30.779 34.2533 30.8391 34.2286C30.8992 34.2039 30.9636 34.1913 31.0286 34.1914H45.0653C45.1303 34.1913 45.1947 34.2039 45.2548 34.2286C45.3149 34.2533 45.3696 34.2896 45.4156 34.3354C45.4616 34.3812 45.4981 34.4356 45.523 34.4955C45.5479 34.5554 45.5608 34.6196 45.5608 34.6844V35.2078C45.5611 35.3387 45.6134 35.4643 45.7062 35.5569C45.799 35.6495 45.9249 35.7016 46.0562 35.7019C46.1874 35.7019 46.3132 35.7538 46.4061 35.8462C46.499 35.9387 46.5513 36.0641 46.5516 36.1949V39.5716C46.5517 39.6989 46.5024 39.8213 46.4141 39.9132C46.3257 40.0051 46.2052 40.0594 46.0776 40.0646L31.0501 40.7287C30.9836 40.7315 30.9172 40.721 30.8549 40.6978C30.7926 40.6745 30.7356 40.639 30.6874 40.5933C30.6392 40.5476 30.6007 40.4927 30.5742 40.4318C30.5477 40.371 30.5337 40.3054 30.5332 40.239Z" fill="#99A5B6"/>
    <path d="M31.2902 36.7031H34.6363C34.6752 36.7031 34.7126 36.7185 34.7401 36.746C34.7676 36.7734 34.7831 36.8106 34.7831 36.8494V38.7483C34.7831 38.7871 34.7676 38.8243 34.7401 38.8517C34.7126 38.8792 34.6752 38.8946 34.6363 38.8946H33.5823C33.003 38.8935 32.4423 38.6903 31.9973 38.3203C31.5523 37.9503 31.2511 37.4367 31.1458 36.8686C31.1431 36.848 31.1448 36.8271 31.1508 36.8072C31.1568 36.7874 31.1669 36.769 31.1806 36.7534C31.1942 36.7377 31.2111 36.7251 31.23 36.7165C31.2489 36.7078 31.2694 36.7033 31.2902 36.7031Z" fill="#C0EBFA"/>
    <path d="M34.1719 34.1914L35.6728 38.4877C35.7781 38.7882 35.9776 39.0468 36.2419 39.2252C36.5062 39.4036 36.8211 39.4923 37.1399 39.4782L43.0297 39.2103C43.2816 39.1987 43.5231 39.1068 43.7187 38.9482C43.9143 38.7895 44.0537 38.5725 44.1165 38.329L45.1807 34.1914H34.1719Z" fill="#A8B5C3"/>
    <path d="M36.6839 30.6511H43.7678C43.8409 30.6513 43.9133 30.6681 43.9804 30.7007C44.0475 30.7332 44.108 30.7807 44.158 30.8403C44.2081 30.8999 44.2466 30.9703 44.2714 31.0471C44.2962 31.124 44.3066 31.2057 44.302 31.2872L43.9489 37.3636C43.9405 37.5103 43.884 37.6484 43.7901 37.7515C43.6962 37.8546 43.5716 37.9155 43.4401 37.9224L37.2823 38.2427C37.1454 38.2499 37.0112 38.1982 36.9075 38.0982C36.8037 37.9983 36.7383 37.8577 36.7246 37.7055L36.1517 31.3144C36.1434 31.2309 36.151 31.1464 36.1739 31.0663C36.1969 30.9863 36.2347 30.9126 36.285 30.85C36.3352 30.7874 36.3967 30.7373 36.4654 30.7031C36.5342 30.6688 36.6086 30.6511 36.6839 30.6511Z" fill="#14512D"/>
    <path d="M31.6484 18.8401L44.0713 19.3366C44.1875 19.3413 44.2988 19.3841 44.3875 19.4581C44.4762 19.532 44.5371 19.633 44.5605 19.7448L45.1354 22.5228C45.1618 22.6509 45.1373 22.7842 45.0668 22.8951C44.9963 23.0061 44.8852 23.0865 44.7563 23.1196L43.9689 23.3226C43.9259 23.3337 43.8817 23.3393 43.8373 23.3392H33.3368C33.1986 23.3392 33.066 23.2854 32.9682 23.1896C32.8703 23.0939 32.8152 22.964 32.8149 22.8284V21.2452C32.815 20.5389 32.555 19.8564 32.0826 19.3233L31.6484 18.8401Z" fill="url(#paint2_linear_1035_21133)"/>
    <path d="M32.6336 22.6232L33.2685 22.8648C33.3176 22.8837 33.3697 22.8938 33.4224 22.8947L43.9875 23.1693C44.0904 23.1726 44.1893 23.2094 44.2692 23.2741C44.3491 23.3388 44.4055 23.4279 44.4298 23.5276L45.4361 27.6803C45.4454 27.7203 45.4496 27.7612 45.4487 27.8023C45.4457 27.9233 45.3957 28.0385 45.3093 28.1236C45.2229 28.2087 45.1068 28.2571 44.9853 28.2586L33.4694 28.2971C33.3707 28.2967 33.2745 28.2659 33.194 28.2089L32.0856 27.4167C32.0237 27.3719 31.9736 27.3128 31.9395 27.2445C31.9055 27.1761 31.8887 27.1006 31.8904 27.0243L31.9936 23.0524C31.995 22.9769 32.0146 22.9029 32.0508 22.8366C32.0869 22.7703 32.1386 22.7137 32.2015 22.6715C32.2643 22.6294 32.3364 22.603 32.4116 22.5946C32.4868 22.5862 32.5629 22.596 32.6336 22.6232Z" fill="#C0EBFA"/>
    <path d="M27.354 22.2644H30.023C30.2139 22.2643 30.3977 22.337 30.5368 22.4675C30.6758 22.5981 30.7597 22.7766 30.7712 22.9668C30.8299 23.9561 30.7859 25.7536 30.7531 26.7745C30.7503 26.8661 30.7269 26.9558 30.6845 27.0371C30.6422 27.1184 30.582 27.1891 30.5085 27.2441C30.435 27.299 30.3501 27.3367 30.26 27.3544C30.1698 27.3721 30.0769 27.3693 29.988 27.3463C29.1563 27.1313 27.8325 26.7835 27.143 26.5866C26.9873 26.5411 26.8506 26.4465 26.7534 26.3171C26.6562 26.1876 26.6036 26.0302 26.6035 25.8685V23.0118C26.6035 22.9135 26.6229 22.8163 26.6607 22.7255C26.6984 22.6348 26.7537 22.5523 26.8234 22.4829C26.8931 22.4135 26.9758 22.3585 27.0669 22.321C27.1579 22.2835 27.2555 22.2643 27.354 22.2644Z" fill="#C0EBFA"/>
    <path d="M28.5502 38.6191C28.4495 36.7834 27.3755 35.3499 26.1532 35.416H26.1089C26.0352 35.4108 25.9613 35.4108 25.8877 35.416C25.7282 35.4527 25.5635 35.4616 25.401 35.4425C24.1776 35.5097 23.2683 37.0512 23.3689 38.888C23.4696 40.7248 24.5437 42.1572 25.766 42.0911C25.8476 42.0865 25.9286 42.0751 26.0082 42.0569C26.0894 42.0661 26.1711 42.0687 26.2527 42.0646H26.297C26.3688 42.0696 26.4408 42.0696 26.5127 42.0646C27.7416 41.9974 28.6508 40.4548 28.5502 38.6191Z" fill="#14512D"/>
    <path d="M24.9623 42.0768C26.1913 42.0098 27.1057 40.4613 27.0046 38.6181C26.9035 36.7749 25.8253 35.335 24.5963 35.4021C23.3674 35.4691 22.453 37.0176 22.5541 38.8608C22.6551 40.704 23.7333 42.1439 24.9623 42.0768Z" fill="#526F91"/>
    <path d="M24.7653 41.1272C25.6241 41.0804 26.262 39.977 26.1899 38.6628C26.1179 37.3486 25.3632 36.3212 24.5043 36.3681C23.6455 36.4149 23.0076 37.5183 23.0797 38.8325C23.1517 40.1467 23.9064 41.1741 24.7653 41.1272Z" fill="#E7EAF4"/>
    <path d="M18.2929 37.8098C18.2173 36.3472 17.4103 35.2051 16.492 35.2578H16.4588C16.4034 35.2536 16.3479 35.2536 16.2926 35.2578C16.1727 35.287 16.049 35.2941 15.9269 35.2788C15.0078 35.3324 14.3246 36.5606 14.4003 38.024C14.4759 39.4875 15.2828 40.6288 16.2012 40.5761C16.2624 40.5725 16.3233 40.5634 16.3831 40.5489C16.4441 40.5562 16.5055 40.5583 16.5668 40.555H16.6001C16.654 40.559 16.7082 40.559 16.7621 40.555C17.6854 40.5015 18.3685 39.2724 18.2929 37.8098Z" fill="#14512D"/>
    <path d="M15.5991 40.5645C16.5224 40.511 17.2094 39.2773 17.1335 37.8087C17.0576 36.3401 16.2475 35.1929 15.3242 35.2463C14.4008 35.2997 13.7139 36.5335 13.7898 38.0021C13.8657 39.4706 14.6758 40.6179 15.5991 40.5645Z" fill="#526F91"/>
    <path d="M15.4503 39.8073C16.0956 39.77 16.5748 38.8909 16.5207 37.8438C16.4665 36.7967 15.8996 35.9781 15.2543 36.0154C14.609 36.0528 14.1298 36.9318 14.184 37.9789C14.2381 39.026 14.8051 39.8446 15.4503 39.8073Z" fill="#E7EAF4"/>
    <path d="M7.27412 36.1482C7.21856 35.0737 6.62573 34.2346 5.95109 34.2733H5.92666C5.88601 34.2702 5.8452 34.2702 5.80455 34.2733C5.71652 34.2948 5.62564 34.3 5.53592 34.2888C4.86067 34.3281 4.3588 35.2304 4.41436 36.3056C4.46992 37.3807 5.06276 38.2192 5.7374 38.1805C5.78242 38.1778 5.82715 38.1711 5.87111 38.1605C5.91589 38.1658 5.96102 38.1673 6.00603 38.165H6.03046C6.0701 38.1679 6.10988 38.1679 6.14951 38.165C6.82782 38.1256 7.32968 37.2227 7.27412 36.1482Z" fill="#14512D"/>
    <path d="M5.29544 38.1717C5.97377 38.1324 6.47845 37.226 6.42267 36.1471C6.36689 35.0682 5.77178 34.2254 5.09345 34.2647C4.41512 34.3039 3.91045 35.2103 3.96623 36.2892C4.02201 37.3681 4.61711 38.2109 5.29544 38.1717Z" fill="#526F91"/>
    <path d="M5.18595 37.6155C5.66001 37.5881 6.01206 36.9422 5.97229 36.173C5.93252 35.4037 5.51598 34.8023 5.04193 34.8297C4.56788 34.8572 4.21583 35.503 4.2556 36.2723C4.29537 37.0415 4.7119 37.6429 5.18595 37.6155Z" fill="#E7EAF4"/>
    <path d="M8.31063 30.6511L-1.10938 31.0729C-0.781315 31.4478 -0.0689565 32.282 0.155999 32.6195C0.437193 33.0413 14.0751 33.4631 14.4969 33.4631C14.8343 33.4631 18.3868 32.6195 20.1208 32.1977L19.2772 30.6511H8.31063Z" fill="#D9D9D9"/>
    <path d="M44.4947 23.5423C44.4704 23.4426 44.414 23.3535 44.3341 23.2888C44.2543 23.2241 44.1553 23.1873 44.0525 23.184L35.4785 22.9612L44.0567 28.2767L45.0491 28.2733C45.1705 28.2715 45.2865 28.223 45.3728 28.138C45.4592 28.0529 45.5092 27.9379 45.5126 27.8169C45.5135 27.7759 45.5092 27.7349 45.4999 27.695L44.4947 23.5423Z" fill="#B2E0F0"/>
    <path d="M19.2333 23.96L14.4506 23.9588L6.1288 23.6538L-0.511494 25.1508L-0.658203 29.653L0.361992 30.2046L11.7489 30.4668H13.0016L13.1754 30.728L17.9231 30.612L19.2333 23.96Z" fill="#FFAA3A"/>
    <path d="M8.92467 28.1401C8.92467 28.1401 7.41808 28.5476 7.85483 30.3541L8.0602 30.3823L8.51161 29.6236L8.92467 28.1401Z" fill="#C97D31"/>
    <path d="M11.2946 29.7122C11.2382 28.8118 10.6378 28.1083 9.9528 28.1365H9.9291C9.88888 28.1342 9.84856 28.1342 9.80834 28.1365C9.76291 28.1388 9.71768 28.1441 9.67292 28.1522C9.62745 28.1494 9.58185 28.1494 9.53638 28.1522C8.85136 28.1849 8.34238 28.9401 8.3988 29.8406C8.45523 30.741 9.05563 31.4456 9.74065 31.4163C9.78616 31.4142 9.83143 31.4085 9.87607 31.3995C9.92152 31.4028 9.96716 31.4028 10.0126 31.3995H10.0374C10.0777 31.4017 10.118 31.4017 10.1582 31.3995C10.8421 31.3702 11.3511 30.6138 11.2946 29.7122Z" fill="#344558"/>
    <path d="M9.33445 31.4652C10.0184 31.4092 10.5128 30.6346 10.4388 29.735C10.3648 28.8354 9.75041 28.1516 9.06648 28.2075C8.38256 28.2635 7.88811 29.0381 7.96211 29.9377C8.0361 30.8373 8.65052 31.5212 9.33445 31.4652Z" fill="#526F91"/>
    <path d="M9.21218 31C9.68994 30.9617 10.0354 30.4108 9.98376 29.7695C9.93214 29.1282 9.503 28.6393 9.02524 28.6776C8.54748 28.7158 8.20201 29.2667 8.25363 29.908C8.30525 30.5494 8.73442 31.0383 9.21218 31Z" fill="#E7EAF4"/>
    <path d="M2.39506 29.7265C2.3454 28.8688 1.81952 28.1991 1.22026 28.2306H1.19883C1.1639 28.2278 1.12878 28.2278 1.09386 28.2306C1.05366 28.233 1.01367 28.2383 0.974224 28.2464C0.934422 28.243 0.894423 28.243 0.85462 28.2464C0.255369 28.2779 -0.19041 28.9983 -0.140754 29.8559C-0.091099 30.7136 0.434788 31.3833 1.03404 31.3518C1.07387 31.3495 1.11349 31.3442 1.15254 31.3361C1.19234 31.3394 1.23237 31.3394 1.27217 31.3361H1.29361C1.32891 31.3389 1.36438 31.3389 1.39968 31.3361C1.99894 31.3045 2.44471 30.5842 2.39506 29.7265Z" fill="#344558"/>
    <path d="M0.666439 31.3555C1.26672 31.3181 1.70974 30.5926 1.65595 29.7352C1.60217 28.8778 1.07195 28.2131 0.471665 28.2505C-0.128619 28.288 -0.571633 29.0134 -0.517847 29.8708C-0.464062 30.7283 0.0661548 31.393 0.666439 31.3555Z" fill="#526F91"/>
    <path d="M0.567133 30.9018C0.986408 30.8758 1.29542 30.3593 1.2573 29.7482C1.21918 29.137 0.84836 28.6627 0.429085 28.6887C0.00981023 28.7147 -0.299175 29.2313 -0.261054 29.8424C-0.222934 30.4535 0.147858 30.9278 0.567133 30.9018Z" fill="#E7EAF4"/>
    <path d="M14.8275 22.5934L7.30585 22.7915C6.39181 22.815 5.48755 22.9853 4.62784 23.2958L-0.505865 25.1507L-0.607422 28.3023C-0.447534 28.2525 -0.277946 28.242 -0.113137 28.2719C-0.0394 28.2521 0.0362846 28.2404 0.11257 28.237C0.159907 28.2336 0.207429 28.2336 0.254766 28.237C0.301796 28.2288 0.349285 28.2236 0.396963 28.2212C0.438671 28.2184 0.480534 28.2184 0.522242 28.2212H0.548196C1.26369 28.1897 1.89114 28.8594 1.94983 29.7171C1.96185 29.8895 1.94892 30.0627 1.91145 30.2315L7.52028 30.3609C7.46438 30.198 7.42984 30.0285 7.41757 29.8567C7.3555 28.9562 7.91526 28.1987 8.66799 28.1683C8.74845 28.1651 8.82902 28.1704 8.90836 28.1841C8.98537 28.1631 9.06448 28.1506 9.14423 28.1469C9.19422 28.1441 9.24435 28.1441 9.29434 28.1469C9.38714 28.1314 9.48142 28.1265 9.57534 28.1323H9.60242C10.3529 28.0997 11.0131 28.8076 11.0752 29.7081C11.0931 29.9573 11.0608 30.2076 10.9804 30.4442L11.7568 30.4622H13.0083L13.1833 30.7234L17.931 30.6108L19.2412 23.9587L16.8149 22.9581C16.1854 22.6988 15.5083 22.5745 14.8275 22.5934Z" fill="#FEC046"/>
    <path d="M10.6394 25.6084L18.8957 25.0727C18.9377 25.07 18.9778 25.0541 19.0101 25.0272C19.0423 25.0002 19.0651 24.9637 19.0752 24.923L19.1767 24.4986C19.1877 24.4539 19.1823 24.4067 19.1617 24.3654C19.141 24.3242 19.1063 24.2917 19.0639 24.2735L17.0495 23.4068C16.5199 23.1784 15.947 23.067 15.3702 23.0804L9.01429 23.2256C8.9776 23.2266 8.94192 23.2378 8.91125 23.2579C8.88058 23.2781 8.85613 23.3063 8.84066 23.3395C8.82519 23.3727 8.81931 23.4095 8.82366 23.4459C8.82801 23.4822 8.84244 23.5167 8.86532 23.5453L10.4724 25.5375C10.4925 25.5618 10.5181 25.5809 10.5472 25.5933C10.5763 25.6056 10.6079 25.6108 10.6394 25.6084Z" fill="#3D447B"/>
    <path d="M6.4896 23.3941C6.2244 23.6879 5.53487 24.4792 5.22226 25.1207C5.19685 25.1722 5.18429 25.229 5.18565 25.2863C5.187 25.3437 5.20224 25.3998 5.23006 25.45C5.25788 25.5002 5.29746 25.543 5.34542 25.5746C5.39339 25.6062 5.44832 25.6258 5.50553 25.6317L9.06154 25.993C9.12792 26.0001 9.19494 25.9884 9.25495 25.9592C9.31496 25.93 9.36552 25.8846 9.40084 25.8281C9.43617 25.7716 9.45484 25.7064 9.45471 25.6398C9.45457 25.5732 9.43565 25.508 9.4001 25.4516L8.14741 23.4403C8.11521 23.3893 8.07059 23.3473 8.0177 23.3181C7.96481 23.289 7.90539 23.2737 7.84498 23.2737H6.75818C6.70737 23.2734 6.65709 23.284 6.61075 23.3048C6.56441 23.3255 6.5231 23.356 6.4896 23.3941Z" fill="#3D447B"/>
    <path d="M4.61077 25.5055C4.72362 25.259 5.22356 24.2415 5.76413 23.5819C5.7776 23.566 5.78557 23.5462 5.78686 23.5254C5.78815 23.5046 5.78269 23.484 5.77129 23.4665C5.75989 23.4491 5.74313 23.4358 5.72354 23.4286C5.70396 23.4214 5.68257 23.4207 5.66254 23.4266C4.88047 23.6517 2.83556 24.3022 1.4012 25.385C1.38454 25.3973 1.3722 25.4145 1.36593 25.4342C1.35966 25.4539 1.35981 25.475 1.36631 25.4946C1.37282 25.5142 1.38538 25.5313 1.40219 25.5433C1.419 25.5554 1.43918 25.5618 1.45988 25.5617H4.52161C4.5403 25.5618 4.55861 25.5565 4.5744 25.5466C4.59019 25.5366 4.60282 25.5223 4.61077 25.5055Z" fill="#3D447B"/>
    <path d="M12.7712 27.3577L16.3272 27.9926C16.3636 27.9985 16.3976 28.0144 16.4253 28.0385C16.4531 28.0627 16.4735 28.0941 16.4843 28.1292C16.4951 28.1643 16.4958 28.2018 16.4864 28.2373C16.477 28.2728 16.4578 28.305 16.431 28.3302C16.1692 28.5902 15.6196 28.9166 14.5611 28.7658C13.3648 28.5947 12.9258 28.3314 12.5963 27.5862C12.5832 27.5594 12.5779 27.5295 12.5809 27.4999C12.5839 27.4702 12.595 27.4419 12.6132 27.4183C12.6313 27.3946 12.6557 27.3764 12.6836 27.3657C12.7115 27.355 12.7418 27.3522 12.7712 27.3577Z" fill="#DEF7FE"/>
    <path d="M9.04565 25.5234H7.35059C7.05018 25.5234 6.80664 25.7663 6.80664 26.066V26.0671C6.80664 26.3667 7.05018 26.6096 7.35059 26.6096H9.04565C9.34607 26.6096 9.58961 26.3667 9.58961 26.0671V26.066C9.58961 25.7663 9.34607 25.5234 9.04565 25.5234Z" fill="#C97D31"/>
    <path d="M7.51412 30.3543C7.45799 30.1914 7.42345 30.0219 7.4114 29.8501C7.38333 29.4932 7.46187 29.136 7.63711 28.8236C5.28186 27.5855 3.91295 29.5462 2.55871 27.6181C1.5182 26.1414 0.00597686 26.3158 0.00597686 26.3158L-0.507512 26.3091L-0.552642 26.461L-0.611328 28.2923C-0.524646 28.2669 -0.43526 28.2518 -0.345009 28.2473C-0.26943 28.2448 -0.193792 28.2501 -0.119303 28.2631C-0.0455655 28.2433 0.0301191 28.2316 0.106404 28.2282C0.15376 28.2253 0.201244 28.2253 0.248601 28.2282C0.295578 28.2198 0.343104 28.2149 0.390797 28.2135C0.432522 28.2113 0.474351 28.2113 0.516077 28.2135H0.542031C1.25752 28.182 1.88498 28.8517 1.94366 29.7094C1.95568 29.8818 1.94278 30.0551 1.90531 30.2238L7.51412 30.3543Z" fill="#FCA039"/>
    <path d="M12.9465 30.1988L13.1225 29.779C13.1508 29.7115 13.1975 29.6533 13.2574 29.6111C13.3173 29.5689 13.3879 29.5444 13.4611 29.5403C14.5501 29.4897 18.878 29.2871 19.0101 29.2612C19.1229 29.2398 18.7923 29.9894 18.6174 30.3755C18.5866 30.4414 18.538 30.4975 18.4769 30.5373C18.4159 30.577 18.3449 30.599 18.272 30.6006L13.3132 30.7346C13.2126 30.7379 13.1147 30.7019 13.0401 30.6344C12.9817 30.58 12.9415 30.5092 12.9247 30.4313C12.908 30.3534 12.9155 30.2722 12.9465 30.1988Z" fill="#C97D31"/>
    <path d="M10.7832 25.825L12.7728 27.3569L16.4902 28.0773H18.4279L20.0733 26.4351L20.2482 25.5234L19.2348 25.0405L19.035 25.1722L10.7832 25.825Z" fill="#FFC973"/>
    <path d="M13.3867 29.5445L13.5154 29.6188C13.649 29.6967 13.8019 29.7356 13.9566 29.7314L18.8499 29.5828L18.2089 29.3115L13.3867 29.5445Z" fill="#FFC973"/>
    <path d="M10.6895 23.2391C11.5189 23.8762 12.7208 24.7023 13.6383 25.4035L18.6039 25.1379L14.189 23.1592L10.6895 23.2391Z" fill="#5159A8"/>
    <path d="M24.0002 17.7158L21.856 18.4294C21.3922 18.5834 20.9773 18.8566 20.653 19.2213C20.3287 19.5861 20.1065 20.0296 20.0086 20.5072L17.7098 31.7167L-2.09375 31.2518V33.5761L23.4179 34.6791L24.0002 17.7158Z" fill="#F1F1F1"/>
    <rect x="28.5566" y="24.4639" width="2.24955" height="3.37433" rx="1.12478" fill="#1C723F"/>
    <rect x="26.5879" y="27.5579" width="0.562388" height="1.68717" rx="0.281194" fill="#25824B"/>
  </g>
  <path d="M41.204 37.8204C41.1005 35.8889 39.9962 34.3806 38.7395 34.4502H38.694C38.6183 34.4447 38.5423 34.4447 38.4666 34.4502C38.3026 34.4887 38.1333 34.4982 37.9662 34.478C36.7083 34.5487 35.7735 36.1707 35.877 38.1033C35.9805 40.036 37.0848 41.5431 38.3415 41.4736C38.4253 41.4688 38.5087 41.4567 38.5905 41.4376C38.674 41.4473 38.758 41.45 38.8419 41.4458H38.8874C38.9612 41.451 39.0353 41.451 39.1091 41.4458C40.3727 41.375 41.3075 39.7519 41.204 37.8204Z" fill="#14512D"/>
  <path d="M38.2513 19.4593C38.4646 19.0507 38.2355 18.5589 38.2513 18.1019C38.2526 17.9665 38.2175 17.8332 38.1497 17.7158H23.9359L23.3535 34.6791L30.8018 34.3314L34.1874 26.4884L38.2513 19.4593Z" fill="#A9B5C3"/>
  <path d="M44.9241 27.416H33.3687C33.2072 27.4161 33.0489 27.4585 32.9113 27.5387C32.7737 27.6189 32.6622 27.7337 32.589 27.8704C32.5159 28.0071 32.484 28.1603 32.4969 28.3131C32.5099 28.466 32.567 28.6124 32.6622 28.7363L33.1109 29.321C33.2206 29.4629 33.2796 29.6345 33.2792 29.8106V33.2546C33.279 33.4661 33.364 33.6698 33.5165 33.8239C33.6691 33.9781 33.8779 34.0711 34.1002 34.0841L45.0626 34.7255C45.1842 34.7325 45.306 34.7154 45.4202 34.6751C45.5345 34.6349 45.6386 34.5724 45.726 34.4918C45.8134 34.4112 45.882 34.3141 45.9277 34.2068C45.9733 34.0996 45.9949 33.9844 45.991 33.8688L45.7989 28.2195C45.7915 28.0039 45.696 27.7996 45.5328 27.6496C45.3695 27.4997 45.1513 27.4159 44.9241 27.416Z" fill="url(#paint3_linear_1035_21133)"/>
  <path d="M30.4664 34.7266H29.7353L29.1165 33.6893L25.7466 33.4292C25.4404 33.4046 25.1545 33.2622 24.9459 33.0302C24.7372 32.7983 24.6213 32.4939 24.6211 32.1778V20.5632C24.6212 20.17 24.7684 19.7919 25.0321 19.5073C25.2958 19.2228 25.6558 19.0536 26.0375 19.0349L32.8329 18.6985V28.5963L33.3381 29.2433L33.9005 34.1642L30.4664 34.7266Z" fill="url(#paint4_linear_1035_21133)"/>
  <path d="M30.5352 40.0974V34.5428C30.5352 34.478 30.548 34.4138 30.5729 34.3539C30.5978 34.294 30.6343 34.2396 30.6803 34.1938C30.7263 34.148 30.781 34.1117 30.8411 34.087C30.9012 34.0623 30.9656 34.0497 31.0306 34.0498H45.0673C45.1323 34.0497 45.1967 34.0623 45.2568 34.087C45.3169 34.1117 45.3715 34.148 45.4175 34.1938C45.4636 34.2396 45.5001 34.294 45.525 34.3539C45.5499 34.4138 45.5627 34.478 45.5627 34.5428V35.0662C45.563 35.1971 45.6153 35.3227 45.7082 35.4153C45.801 35.5079 45.9268 35.56 46.0582 35.5603C46.1894 35.5603 46.3152 35.6122 46.4081 35.7046C46.5009 35.7971 46.5533 35.9224 46.5536 36.0533V39.43C46.5537 39.5573 46.5044 39.6797 46.4161 39.7716C46.3277 39.8635 46.2071 39.9178 46.0796 39.923L31.052 40.5871C30.9855 40.5899 30.9192 40.5794 30.8569 40.5562C30.7946 40.5329 30.7376 40.4974 30.6894 40.4517C30.6411 40.406 30.6026 40.3511 30.5761 40.2902C30.5496 40.2294 30.5357 40.1638 30.5352 40.0974Z" fill="#99A5B6"/>
  <path d="M31.2902 36.5608H34.6363C34.6752 36.5608 34.7126 36.5762 34.7401 36.6036C34.7676 36.6311 34.7831 36.6683 34.7831 36.7071V38.6059C34.7831 38.6447 34.7676 38.682 34.7401 38.7094C34.7126 38.7368 34.6752 38.7523 34.6363 38.7523H33.5823C33.003 38.7511 32.4423 38.548 31.9973 38.178C31.5523 37.808 31.2511 37.2944 31.1458 36.7262C31.1431 36.7057 31.1448 36.6848 31.1508 36.6649C31.1568 36.645 31.1669 36.6267 31.1806 36.611C31.1942 36.5954 31.2111 36.5828 31.23 36.5741C31.2489 36.5655 31.2694 36.5609 31.2902 36.5608Z" fill="white"/>
  <path d="M45.0674 36.3841L45.9048 36.3278C45.9406 36.3253 45.9765 36.3302 46.0102 36.3424C46.044 36.3546 46.0748 36.3738 46.1006 36.3986C46.1265 36.4234 46.1468 36.4534 46.1603 36.4866C46.1738 36.5198 46.1802 36.5554 46.179 36.5912C46.1756 36.92 46.0836 37.2419 45.9127 37.5231C45.7417 37.8043 45.4981 38.0344 45.2073 38.1895C45.1682 38.2105 45.1243 38.221 45.0798 38.22C45.0354 38.2191 44.992 38.2066 44.9538 38.184C44.9156 38.1613 44.884 38.1292 44.862 38.0907C44.8399 38.0522 44.8283 38.0087 44.8281 37.9644V36.6396C44.8282 36.5747 44.853 36.5123 44.8974 36.4649C44.9418 36.4175 45.0025 36.3886 45.0674 36.3841Z" fill="white"/>
  <path d="M34.1738 34.0498L35.6748 38.3461C35.78 38.6466 35.9796 38.9052 36.2439 39.0836C36.5081 39.262 36.8231 39.3507 37.1419 39.3366L43.0317 39.0687C43.2835 39.0571 43.525 38.9652 43.7207 38.8066C43.9163 38.6479 44.0557 38.4309 44.1185 38.1874L45.1827 34.0498H34.1738Z" fill="#A8B5C3"/>
  <path d="M36.6859 30.509H43.7697C43.8429 30.5092 43.9152 30.526 43.9824 30.5586C44.0495 30.5911 44.1099 30.6386 44.16 30.6982C44.21 30.7578 44.2486 30.8282 44.2734 30.905C44.2981 30.9819 44.3086 31.0636 44.304 31.1451L43.9508 37.2215C43.9425 37.3682 43.8859 37.5063 43.7921 37.6094C43.6982 37.7125 43.5736 37.7734 43.442 37.7803L37.2842 38.1006C37.1473 38.1078 37.0132 38.0561 36.9094 37.9561C36.8057 37.8562 36.7402 37.7156 36.7266 37.5634L36.1537 31.1723C36.1454 31.0888 36.1529 31.0043 36.1759 30.9242C36.1989 30.8442 36.2367 30.7705 36.2869 30.7079C36.3372 30.6453 36.3986 30.5952 36.4674 30.561C36.5361 30.5267 36.6106 30.509 36.6859 30.509Z" fill="#14512D"/>
  <path d="M31.6504 18.6985L44.0732 19.195C44.1895 19.1997 44.3008 19.2425 44.3895 19.3165C44.4781 19.3904 44.539 19.4914 44.5625 19.6032L45.1373 22.3812C45.1638 22.5093 45.1393 22.6426 45.0688 22.7535C44.9983 22.8645 44.8872 22.9449 44.7582 22.978L43.9708 23.181C43.9279 23.1921 43.8836 23.1977 43.8392 23.1976H33.3388C33.2006 23.1976 33.068 23.1438 32.9701 23.048C32.8723 22.9523 32.8172 22.8224 32.8169 22.6868V21.1036C32.817 20.3973 32.5569 19.7148 32.0846 19.1817L31.6504 18.6985Z" fill="url(#paint5_linear_1035_21133)"/>
  <path d="M32.6355 22.4816L33.2704 22.7232C33.3196 22.7421 33.3717 22.7522 33.4243 22.7531L43.9895 23.0277C44.0923 23.031 44.1913 23.0678 44.2711 23.1325C44.351 23.1972 44.4074 23.2863 44.4317 23.386L45.4381 27.5387C45.4474 27.5787 45.4516 27.6196 45.4507 27.6607C45.4476 27.7817 45.3976 27.8969 45.3112 27.982C45.2248 28.0671 45.1087 28.1155 44.9873 28.117L33.4713 28.1555C33.3726 28.1551 33.2764 28.1243 33.1959 28.0673L32.0876 27.2751C32.0256 27.2303 31.9755 27.1712 31.9415 27.1029C31.9075 27.0345 31.8906 26.959 31.8923 26.8827L31.9955 22.9108C31.9969 22.8353 32.0165 22.7613 32.0527 22.695C32.0889 22.6287 32.1406 22.572 32.2034 22.5299C32.2662 22.4878 32.3383 22.4614 32.4135 22.453C32.4887 22.4446 32.5649 22.4544 32.6355 22.4816Z" fill="#C0EBFA"/>
  <path d="M27.3559 22.1221H30.0249C30.2159 22.122 30.3997 22.1947 30.5387 22.3252C30.6778 22.4557 30.7616 22.6343 30.7731 22.8244C30.8318 23.8138 30.7878 25.6113 30.7551 26.6322C30.7523 26.7238 30.7288 26.8135 30.6865 26.8948C30.6441 26.9761 30.584 27.0468 30.5105 27.1017C30.437 27.1567 30.352 27.1944 30.2619 27.2121C30.1718 27.2298 30.0788 27.227 29.9899 27.204C29.1582 26.989 27.8344 26.6412 27.1449 26.4442C26.9893 26.3987 26.8526 26.3042 26.7554 26.1747C26.6581 26.0453 26.6055 25.8879 26.6055 25.7261V22.8694C26.6055 22.7712 26.6249 22.6739 26.6626 22.5832C26.7003 22.4924 26.7557 22.41 26.8254 22.3406C26.8951 22.2712 26.9778 22.2161 27.0688 22.1786C27.1599 22.1411 27.2574 22.1219 27.3559 22.1221Z" fill="#C0EBFA"/>
  <path d="M28.5502 38.478C28.4495 36.6423 27.3755 35.2088 26.1532 35.2749H26.1089C26.0352 35.2697 25.9613 35.2697 25.8877 35.2749C25.7282 35.3116 25.5635 35.3205 25.401 35.3014C24.1776 35.3686 23.2683 36.9101 23.3689 38.7469C23.4696 40.5837 24.5437 42.0161 25.766 41.95C25.8476 41.9454 25.9286 41.934 26.0082 41.9158C26.0894 41.925 26.1711 41.9276 26.2527 41.9235H26.297C26.3688 41.9285 26.4408 41.9285 26.5127 41.9235C27.7416 41.8563 28.6508 40.3137 28.5502 38.478Z" fill="#14512D"/>
  <path d="M24.9623 41.9362C26.1913 41.8692 27.1057 40.3207 27.0046 38.4775C26.9035 36.6343 25.8253 35.1944 24.5963 35.2614C23.3674 35.3285 22.453 36.877 22.5541 38.7202C22.6551 40.5634 23.7333 42.0032 24.9623 41.9362Z" fill="#526F91"/>
  <path d="M24.7653 40.9856C25.6241 40.9388 26.262 39.8354 26.1899 38.5212C26.1179 37.207 25.3632 36.1796 24.5043 36.2265C23.6455 36.2733 23.0076 37.3767 23.0797 38.6909C23.1517 40.0051 23.9064 41.0325 24.7653 40.9856Z" fill="#E7EAF4"/>
  <path d="M44.4967 23.4004C44.4724 23.3007 44.416 23.2117 44.3361 23.147C44.2562 23.0823 44.1573 23.0454 44.0544 23.0422L35.4805 22.8193L44.0587 28.1349L45.0511 28.1314C45.1724 28.1296 45.2884 28.0812 45.3748 27.9961C45.4611 27.9111 45.5112 27.7961 45.5145 27.6751C45.5154 27.6341 45.5111 27.5931 45.5019 27.5531L44.4967 23.4004Z" fill="#B2E0F0"/>
  <rect x="28.5566" y="24.3228" width="2.24955" height="3.37433" rx="1.12478" fill="#1C723F"/>
  <rect x="26.5898" y="27.416" width="0.562388" height="1.68717" rx="0.281194" fill="#25824B"/>
  <defs>
    <linearGradient id="paint0_linear_1035_21133" x1="46.9737" y1="31.2134" x2="34.6049" y2="24.7367" gradientUnits="userSpaceOnUse">
      <stop stop-color="#146639"/>
      <stop offset="1" stop-color="#25A45E"/>
    </linearGradient>
    <linearGradient id="paint1_linear_1035_21133" x1="22.6273" y1="22.7768" x2="28.8015" y2="20.5867" gradientUnits="userSpaceOnUse">
      <stop offset="0.243727" stop-color="#25A45E"/>
      <stop offset="1" stop-color="#33C273"/>
    </linearGradient>
    <linearGradient id="paint2_linear_1035_21133" x1="45.8344" y1="21.0896" x2="32.6101" y2="21.0261" gradientUnits="userSpaceOnUse">
      <stop stop-color="#1D7545"/>
      <stop offset="1" stop-color="#25A45E"/>
    </linearGradient>
    <linearGradient id="paint3_linear_1035_21133" x1="46.9756" y1="31.0715" x2="34.6068" y2="24.5949" gradientUnits="userSpaceOnUse">
      <stop stop-color="#146639"/>
      <stop offset="1" stop-color="#25A45E"/>
    </linearGradient>
    <linearGradient id="paint4_linear_1035_21133" x1="22.6293" y1="22.6352" x2="28.8035" y2="20.4451" gradientUnits="userSpaceOnUse">
      <stop offset="0.243727" stop-color="#25A45E"/>
      <stop offset="1" stop-color="#33C273"/>
    </linearGradient>
    <linearGradient id="paint5_linear_1035_21133" x1="45.8363" y1="20.948" x2="32.6121" y2="20.8845" gradientUnits="userSpaceOnUse">
      <stop stop-color="#1D7545"/>
      <stop offset="1" stop-color="#25A45E"/>
    </linearGradient>
  </defs>
</svg>