<svg xmlns="http://www.w3.org/2000/svg" width="48" height="48" viewBox="0 0 48 48" fill="none">
  <rect width="48" height="48" rx="12" fill="#DDE2EC"/>
  <path d="M23.6463 46.4294C35.6012 46.4294 45.2926 36.5032 45.2926 24.2586C45.2926 12.0141 35.6012 2.08789 23.6463 2.08789C11.6914 2.08789 2 12.0141 2 24.2586C2 36.5032 11.6914 46.4294 23.6463 46.4294Z" fill="#DDE2EC"/>
  <path d="M23.5909 44.2074C34.4106 44.2074 43.1818 35.2456 43.1818 24.1906C43.1818 13.1356 34.4106 4.17383 23.5909 4.17383C12.7711 4.17383 4 13.1356 4 24.1906C4 35.2456 12.7711 44.2074 23.5909 44.2074Z" fill="#DDE2EC"/>
  <path d="M7.39062 35.5645C9.21575 38.2485 11.6495 40.4414 14.4841 41.9558C17.3188 43.4702 20.47 44.2612 23.6688 44.2612C26.8675 44.2612 30.0187 43.4702 32.8533 41.9558C35.6879 40.4414 38.1217 38.2485 39.9468 35.5645H7.39062Z" fill="#A3BECF"/>
  <mask id="mask0_1035_21076" style="mask-type:alpha" maskUnits="userSpaceOnUse" x="4" y="4" width="40" height="41">
    <path d="M23.5909 44.2074C34.4106 44.2074 43.1818 35.2456 43.1818 24.1906C43.1818 13.1356 34.4106 4.17383 23.5909 4.17383C12.7711 4.17383 4 13.1356 4 24.1906C4 35.2456 12.7711 44.2074 23.5909 44.2074Z" fill="#F5DEFE"/>
  </mask>
  <g mask="url(#mask0_1035_21076)">
    <path d="M27.9711 8.00356L36.0837 5.59448C36.6339 5.43388 37.184 5.26435 37.7429 5.14836C38.4118 5.05876 39.09 5.21634 39.6552 5.59263C40.2205 5.96892 40.6356 6.53913 40.8256 7.20052C40.3104 7.34328 39.7864 7.46818 39.2799 7.63771C38.5319 7.82262 37.7967 8.05813 37.0792 8.34262C36.9911 8.2636 36.8833 8.21098 36.7678 8.19052C36.6522 8.17005 36.5333 8.18253 36.4243 8.22662L31.3506 9.71666C31.2453 9.73249 31.1467 9.77869 31.0663 9.84981C30.9858 9.92094 30.927 10.014 30.8966 10.1182C30.1892 10.3145 29.4818 10.493 28.7745 10.6982C28.5125 10.7785 28.1021 10.7517 28.2768 11.2514C28.2768 11.2514 28.2767 11.3316 28.2243 11.3495C27.7877 11.635 27.8925 12.0365 27.9885 12.4291C28.0846 12.8217 28.2069 13.2589 28.3291 13.6693C28.3815 13.8745 28.5038 14.0798 28.7047 14.0976C29.1326 14.0976 29.2286 14.4099 29.2897 14.7579C29.3381 15.0076 29.4083 15.2525 29.4993 15.4895C29.5491 15.5703 29.5661 15.6678 29.5465 15.7611C29.5269 15.8545 29.4723 15.9363 29.3945 15.9892C29.2867 16.0795 29.21 16.2027 29.1754 16.3407C29.1409 16.4787 29.1503 16.6244 29.2024 16.7565C29.3334 17.2651 29.4993 17.7558 29.639 18.2644C29.6914 18.4696 29.8312 18.6391 30.0058 18.6391C30.4337 18.6391 30.4774 18.9247 30.556 19.2191C30.6346 19.5136 30.687 19.7634 30.7743 20.031C30.8226 20.1178 30.836 20.2203 30.8115 20.317C30.7871 20.4136 30.7267 20.4967 30.6433 20.5486C30.5498 20.6278 30.4827 20.7348 30.4514 20.8547C30.4201 20.9746 30.4261 21.1015 30.4686 21.2177C30.5996 21.7085 30.7219 22.1992 30.8791 22.681C30.9402 22.8952 31.0188 23.1629 31.2808 23.1896C31.6912 23.2342 31.7698 23.5287 31.8571 23.841C31.9445 24.1532 32.0056 24.3585 32.0755 24.6172C32.1453 24.876 32.1453 24.8849 32.0055 24.983C31.8601 25.0908 31.7585 25.2493 31.7198 25.4286C31.6812 25.6078 31.7083 25.7954 31.796 25.9556C31.8658 26.1519 31.9008 26.366 31.9532 26.5712L29.6565 27.2315C29.2635 25.8396 28.8793 24.4477 28.4776 23.0558C28.3554 22.6097 28.1458 22.4937 27.7091 22.6186L25.5172 23.2699C25.0631 23.4037 24.9496 23.6179 25.0806 24.0819C25.3775 25.1704 25.6832 26.25 25.9539 27.3296C26.0094 27.6403 26.1094 27.941 26.2507 28.2219L25.6918 28.4003C20.8627 29.8101 16.0423 31.2377 11.2132 32.6385C10.8468 32.7509 10.4621 32.7869 10.0818 32.7445C9.70158 32.702 9.33358 32.5819 8.99963 32.3913C8.66568 32.2007 8.37257 31.9436 8.13777 31.6351C7.90297 31.3265 7.73129 30.9729 7.63281 30.5953C7.47562 30.0599 7.30966 29.5246 7.15247 28.9892C6.99528 28.4539 6.93416 28.1416 6.82937 27.7222C6.72458 27.3029 6.73335 27.0887 7.19618 26.83C7.49011 26.6834 7.74707 26.4698 7.94717 26.2054C8.33132 25.8146 8.59673 25.3185 8.71138 24.7772C8.82603 24.2358 8.78503 23.6721 8.59338 23.1539C8.43297 22.6175 8.12718 22.1385 7.71148 21.7721C7.29578 21.4058 6.7871 21.1672 6.24424 21.0839C5.84254 20.9947 5.4321 21.1464 5.03913 21.0036C4.91777 20.8663 4.83094 20.701 4.78596 20.5218C4.58511 19.7901 4.37544 19.0496 4.15713 18.3179C4.15713 18.2376 4.15719 18.0592 4 18.1038V17.8629C4.59382 17.7469 5.16144 17.5596 5.74653 17.39L23.0197 12.3577L27.8401 10.9658C28.0497 10.9034 28.137 10.8141 28.0671 10.5643C27.9482 10.2821 27.883 9.97925 27.875 9.67206C28.0671 9.50253 28.3117 9.33303 28.2506 9.02967C28.2362 8.67018 28.1405 8.31894 27.9711 8.00356ZM16.0597 27.633C16.0663 27.5308 16.0482 27.4285 16.007 27.3351C15.9657 27.2417 15.9027 27.1601 15.8233 27.0975C15.7439 27.0349 15.6506 26.9933 15.5518 26.9762C15.4529 26.9591 15.3515 26.9671 15.2564 26.9995C14.6451 27.1601 14.0426 27.3475 13.4313 27.5259L10.628 28.3557C10.5441 28.3695 10.4638 28.4007 10.3921 28.4475C10.3205 28.4943 10.2591 28.5556 10.2117 28.6277C10.1642 28.6998 10.1318 28.7811 10.1164 28.8666C10.101 28.952 10.1029 29.0397 10.1221 29.1244C10.1413 29.209 10.1773 29.2887 10.228 29.3585C10.2786 29.4283 10.3428 29.4867 10.4164 29.5301C10.4901 29.5735 10.5717 29.6009 10.6562 29.6107C10.7407 29.6205 10.8262 29.6125 10.9075 29.587C12.4707 29.1409 14.0426 28.6948 15.6057 28.2041C15.7273 28.1791 15.8374 28.114 15.9194 28.019C16.0014 27.9239 16.0507 27.804 16.0597 27.6776V27.633Z" fill="#42CE7E"/>
    <path d="M44.5192 21.4941C44.3882 21.387 44.3882 21.4941 44.362 21.5922C44.1532 22.1972 43.7657 22.721 43.2529 23.0912C43.0064 23.2453 42.7426 23.3681 42.4671 23.4571L31.9879 26.5621C31.9355 26.3568 31.9005 26.1427 31.8307 25.9464C31.743 25.7862 31.7159 25.5987 31.7546 25.4194C31.7932 25.2401 31.8948 25.0816 32.0403 24.9739C32.18 24.8757 32.145 24.7329 32.1101 24.608C32.0752 24.4831 31.9616 24.0905 31.8918 23.8318C31.8219 23.573 31.7259 23.2251 31.3155 23.1805C31.0535 23.1805 30.9748 22.886 30.9137 22.6719C30.7565 22.1901 30.6343 21.6993 30.5033 21.2086C30.4608 21.0923 30.4548 20.9654 30.4861 20.8455C30.5174 20.7256 30.5845 20.6186 30.678 20.5394C30.7614 20.4875 30.8218 20.4044 30.8462 20.3078C30.8707 20.2112 30.8573 20.1086 30.8089 20.0219C30.7216 19.7542 30.6605 19.4776 30.5906 19.2099C30.5208 18.9423 30.4684 18.6121 30.0405 18.63C29.8658 18.63 29.7261 18.4605 29.6737 18.2552C29.534 17.7467 29.3681 17.2559 29.2371 16.7473C29.185 16.6152 29.1756 16.4695 29.2101 16.3315C29.2447 16.1935 29.3214 16.0704 29.4292 15.98C29.507 15.9272 29.5615 15.8454 29.5811 15.752C29.6007 15.6586 29.5838 15.5611 29.534 15.4804C29.443 15.2433 29.3729 14.9985 29.3244 14.7487C29.2633 14.4007 29.1672 14.1241 28.7393 14.0885C28.5384 14.0885 28.4162 13.8654 28.3639 13.6601C28.2416 13.2497 28.1281 12.8393 28.0233 12.42C27.9185 12.0006 27.8224 11.6258 28.2591 11.3403C28.2591 11.3403 28.3201 11.2689 28.3114 11.2422C28.1368 10.7425 28.5472 10.7693 28.8092 10.689C29.5166 10.4838 30.2239 10.3053 30.9312 10.109C31.0168 10.6374 31.1483 11.157 31.3242 11.6615C31.4727 12.2147 31.6473 12.304 32.1975 12.1434L34.5465 11.4563L37.1663 10.6711C37.472 10.573 37.699 10.4124 37.5942 10.0287C37.437 9.46662 37.2712 8.89556 37.1052 8.33344C37.8227 8.04895 38.5578 7.8135 39.3058 7.62859C39.8123 7.45906 40.3362 7.3341 40.8515 7.19134C41.1047 8.08359 41.3405 8.97588 41.6199 9.80567C41.7335 10.1715 41.6199 10.3499 41.2968 10.5105C40.8816 10.6922 40.5119 10.9674 40.2155 11.3157C39.9191 11.664 39.7035 12.0762 39.5851 12.5216C39.4666 12.967 39.4483 13.4341 39.5315 13.8877C39.6148 14.3414 39.7974 14.7699 40.0656 15.1413C40.3844 15.6164 40.8314 15.9865 41.3524 16.2067C41.8733 16.4269 42.4457 16.4877 42.9998 16.3815C43.3753 16.328 43.4975 16.4618 43.5848 16.783C43.838 17.7288 44.1088 18.6657 44.3707 19.6025C44.3707 19.6828 44.3707 19.8613 44.5454 19.7988L44.5192 21.4941ZM37.8213 22.6273L38.1008 22.5648L41.0523 21.6726C41.4889 21.5476 41.7335 21.2175 41.6549 20.8695C41.5763 20.5215 41.2008 20.3074 40.7031 20.4502L39.7599 20.7268C39.0176 20.9498 38.2667 21.1551 37.5331 21.396C37.4609 21.4107 37.3923 21.4401 37.3314 21.4825C37.2706 21.5249 37.2187 21.5793 37.1788 21.6425C37.1389 21.7057 37.1118 21.7766 37.0992 21.8507C37.0865 21.9248 37.0886 22.0008 37.1052 22.0741C37.1664 22.4399 37.3584 22.654 37.83 22.6362L37.8213 22.6273ZM37.1838 20.4502C37.2564 20.4569 37.3295 20.4569 37.4021 20.4502C38.45 20.1468 39.4979 19.8345 40.5371 19.5579C40.6213 19.5424 40.7015 19.5091 40.7725 19.4604C40.8435 19.4117 40.9038 19.3484 40.9497 19.2746C40.9957 19.2009 41.0263 19.1182 41.0394 19.0319C41.0525 18.9455 41.048 18.8573 41.0262 18.7728C40.9995 18.6899 40.9571 18.6133 40.9014 18.5473C40.8456 18.4814 40.7776 18.4273 40.7013 18.3883C40.625 18.3493 40.5418 18.3261 40.4567 18.3201C40.3716 18.3142 40.2861 18.3254 40.2053 18.3534C39.1049 18.6567 38.0134 18.9869 36.9218 19.3259C36.7783 19.3601 36.6534 19.45 36.5735 19.5765C36.4937 19.7031 36.4651 19.8564 36.4939 20.0041C36.5376 20.2985 36.7821 20.4591 37.1838 20.4591V20.4502Z" fill="#FFAD1D"/>
    <path d="M27.9185 9.63636C27.9265 9.94355 27.9916 10.2464 28.1106 10.5286C28.1805 10.7784 28.1106 10.8676 27.8835 10.9301L23.0631 12.322L5.79002 17.3543C5.20493 17.5238 4.63731 17.7112 4.04349 17.8272V16.2925C4.14828 16.3817 4.16568 16.2925 4.19188 16.2122C4.37868 15.7403 4.67779 15.3234 5.06205 14.9993C5.44631 14.6753 5.90358 14.4543 6.39252 14.3563L26.6522 8.39612L26.9142 8.33366C26.9055 9.27052 27.1762 9.61852 27.9185 9.63636Z" fill="#4DB276"/>
    <path d="M27.9185 9.63636C27.1762 9.63636 26.9057 9.27042 26.8882 8.28895L27.9711 8.00356C28.1507 8.30446 28.2612 8.64294 28.2942 8.99381C28.3553 9.29717 28.1106 9.46683 27.9185 9.63636Z" fill="#D0DFF3"/>
    <path d="M31.9532 26.5712L42.4321 23.466C42.7077 23.3771 42.9716 23.2542 43.2181 23.1002C43.2181 23.2429 43.2181 23.3946 43.2181 23.5374C43.2181 23.6801 43.1657 23.7515 43.0085 23.7694C42.2973 23.7937 41.6179 24.0767 41.0927 24.5675C40.5676 25.0582 40.2312 25.7244 40.1442 26.4461C40.1442 26.4461 40.1442 26.5175 40.1442 26.5621C40.0135 26.5489 39.8818 26.5489 39.7512 26.5621L36.459 27.5258L24.7311 31.068L10.4968 35.2615C9.76495 35.4875 8.97537 35.409 8.29991 35.043C7.62444 34.6771 7.11777 34.0533 6.89024 33.3075C6.68938 32.6383 6.47988 31.9781 6.31396 31.2999C6.14006 30.8228 6.02562 30.3252 5.97337 29.8188C6.42913 29.6124 6.85275 29.3389 7.23082 29.0069C7.38801 29.5422 7.55397 30.0776 7.71116 30.6129C7.80964 30.9905 7.98132 31.3441 8.21612 31.6527C8.45092 31.9612 8.74403 32.2184 9.07798 32.409C9.41193 32.5996 9.77993 32.7196 10.1602 32.7621C10.5404 32.8046 10.9252 32.7686 11.2915 32.6562C16.1207 31.2554 20.8974 29.8278 25.7702 28.418L26.3291 28.2395L29.6913 27.2313L31.9532 26.5712Z" fill="#1A6B3B"/>
    <path d="M29.6565 27.2315L26.2943 28.2397C26.1529 27.9588 26.0528 27.6581 25.9973 27.3474C25.6829 26.2678 25.3773 25.1882 25.1241 24.0996C24.9931 23.6356 25.1241 23.4215 25.5607 23.2877L27.7526 22.6364C28.1892 22.5115 28.3988 22.6364 28.5211 23.0736C28.8791 24.4476 29.2635 25.8396 29.6565 27.2315Z" fill="#2D0948"/>
    <path d="M37.0792 8.34262C37.2452 8.90474 37.4111 9.47578 37.5683 10.0379C37.6731 10.4216 37.4461 10.5822 37.1404 10.6803L34.5206 11.4655L32.1716 12.1526C31.6302 12.3132 31.4555 12.2239 31.2983 11.6707C31.1225 11.1662 30.9909 10.6466 30.9053 10.1182C30.9358 10.0141 30.9947 9.92098 31.0751 9.84985C31.1556 9.77873 31.2542 9.73254 31.3594 9.7167L36.4331 8.22666C36.541 8.18433 36.6581 8.17274 36.7719 8.19317C36.8857 8.2136 36.9919 8.26525 37.0792 8.34262Z" fill="#43BA76"/>
    <path d="M7.99061 26.2142C7.80987 25.5402 7.43945 24.9353 6.92526 24.4744C6.54456 24.1414 6.08295 23.9194 5.58914 23.8319C5.51079 23.8317 5.43344 23.8141 5.3624 23.7803C5.29136 23.7465 5.22842 23.6974 5.17777 23.6363C5.12712 23.5753 5.08997 23.5037 5.06904 23.4266C5.04811 23.3494 5.04382 23.2686 5.05646 23.1896C5.05646 22.4668 5.05646 21.7352 5.05646 21.0125C5.44943 21.1552 5.85987 21.0124 6.26157 21.0927C6.80442 21.1761 7.31311 21.4147 7.7288 21.781C8.1445 22.1473 8.4503 22.6264 8.6107 23.1628C8.80563 23.6784 8.85073 24.2406 8.74075 24.7819C8.63078 25.3231 8.37033 25.8205 7.99061 26.2142Z" fill="#20844B"/>
    <path d="M16.0597 27.6776C16.0604 27.8118 16.0154 27.942 15.9326 28.0462C15.8498 28.1503 15.7343 28.2219 15.6056 28.2487C14.0425 28.7216 12.4706 29.1409 10.9075 29.6317C10.8262 29.6571 10.7406 29.6652 10.6561 29.6554C10.5716 29.6456 10.49 29.6181 10.4164 29.5747C10.3427 29.5313 10.2785 29.4729 10.2279 29.4031C10.1773 29.3333 10.1412 29.2536 10.122 29.169C10.1028 29.0844 10.1009 28.9966 10.1163 28.9112C10.1317 28.8257 10.1641 28.7445 10.2116 28.6724C10.259 28.6003 10.3204 28.5389 10.3921 28.4921C10.4637 28.4453 10.544 28.4141 10.628 28.4004L13.4312 27.5706C14.0425 27.3921 14.645 27.2047 15.2563 27.0441C15.3514 27.0117 15.4528 27.0037 15.5517 27.0208C15.6506 27.0379 15.7438 27.0796 15.8232 27.1421C15.9026 27.2047 15.9656 27.2864 16.0069 27.3797C16.0481 27.4731 16.0663 27.5754 16.0597 27.6776Z" fill="#B7EDC2"/>
    <path d="M5.93841 29.8187C5.99066 30.3251 6.10509 30.8226 6.27899 31.2998C6.44491 31.9779 6.65453 32.6382 6.85538 33.3074C7.08291 34.0531 7.58948 34.6769 8.26494 35.0429C8.94041 35.4089 9.7301 35.4874 10.462 35.2614L36.4764 27.597L39.7686 26.6334C39.8993 26.6201 40.031 26.6201 40.1617 26.6334C40.1084 27.3717 40.3134 28.1055 40.7405 28.7036C41.1676 29.3017 41.7888 29.7254 42.4932 29.899C42.7377 29.9614 43.0696 29.899 43.2094 30.0507C43.3491 30.2024 43.2617 30.6217 43.2617 30.9429C43.2617 31.8411 43.2617 32.7334 43.2617 33.6197C43.2699 34.0111 43.2013 34.4003 43.06 34.7643C42.9187 35.1283 42.7076 35.4597 42.4391 35.739C42.1705 36.0184 41.85 36.2401 41.4964 36.391C41.1428 36.5418 40.7632 36.6189 40.38 36.6176H8.06923C7.42424 36.6476 6.78786 36.4567 6.26108 36.0753C5.73431 35.6938 5.34722 35.1436 5.16119 34.5119C5.07549 34.2226 5.03134 33.922 5.03018 33.6197C5.03018 32.665 5.03018 31.7102 5.03018 30.7555C5.03018 30.0685 5.03026 30.0685 5.65901 29.9168L5.93841 29.8187ZM32.8961 31.4961C32.5031 31.4961 32.3546 31.6567 32.3459 32.0582C32.3372 32.4598 32.3459 32.9504 32.3459 33.352C32.3459 33.7535 32.5119 33.9319 32.9223 33.9319H38.616C39.0264 33.9319 39.1836 33.7714 39.1924 33.3431C39.2011 32.9148 39.1924 32.5043 39.1924 32.0939C39.1924 31.6835 39.0351 31.4961 38.5898 31.4961H32.8961ZM29.1411 33.2182C29.6476 33.2182 29.927 32.9862 29.9357 32.5846C29.9444 32.1831 29.6388 31.9422 29.1759 31.9422H22.8623C22.3732 31.9422 22.1288 32.1742 22.1288 32.5846C22.1288 32.9951 22.382 33.2182 22.871 33.2182H29.1411Z" fill="#25A45E"/>
    <path d="M37.83 22.6362C37.3672 22.6362 37.1754 22.4399 37.1143 22.1276C37.0976 22.0543 37.0955 21.9783 37.1082 21.9042C37.1208 21.8301 37.1479 21.7593 37.1878 21.6961C37.2277 21.6328 37.2796 21.5784 37.3405 21.536C37.4013 21.4937 37.4699 21.4643 37.5421 21.4495C38.2757 21.2086 39.0266 21.0034 39.7689 20.7803L40.7121 20.5037C41.2099 20.3609 41.5853 20.5037 41.6639 20.923C41.7425 21.3424 41.4979 21.6012 41.0613 21.7261L38.1097 22.6183L37.83 22.6362Z" fill="#B7EDC2"/>
    <path d="M37.1838 20.4591C36.7821 20.4591 36.5376 20.2983 36.494 19.9414C36.4652 19.7937 36.4937 19.6404 36.5736 19.5139C36.6535 19.3873 36.7783 19.2975 36.9219 19.2633C38.0134 18.9242 39.105 18.5941 40.2053 18.2907C40.2862 18.2628 40.3717 18.2516 40.4568 18.2576C40.5419 18.2636 40.625 18.2867 40.7013 18.3257C40.7777 18.3647 40.8457 18.4187 40.9014 18.4847C40.9572 18.5507 40.9996 18.6273 41.0263 18.7101C41.0481 18.7946 41.0526 18.8828 41.0395 18.9692C41.0263 19.0556 40.9958 19.1383 40.9498 19.212C40.9039 19.2858 40.8436 19.349 40.7726 19.3978C40.7015 19.4465 40.6214 19.4797 40.5372 19.4953C39.498 19.8165 38.4501 20.1288 37.4022 20.3875C37.3318 20.4184 37.2586 20.4425 37.1838 20.4591Z" fill="#B7EDC2"/>
    <path d="M38.5898 31.4961C39.0351 31.4961 39.1836 31.6389 39.1924 32.0939C39.2011 32.549 39.1924 32.9237 39.1924 33.3431C39.1924 33.7624 39.0264 33.9319 38.616 33.9319H32.9223C32.5119 33.9319 32.3546 33.7713 32.3459 33.352C32.3372 32.9326 32.3459 32.4598 32.3459 32.0582C32.3459 31.6567 32.5031 31.4961 32.8961 31.4961H38.5898Z" fill="#D3F2DB"/>
    <path d="M22.871 33.2182C22.382 33.2182 22.1288 33.004 22.1288 32.5846C22.1288 32.1653 22.3732 31.9422 22.8623 31.9422H29.1759C29.6388 31.9422 29.9357 32.2188 29.9357 32.5846C29.9357 32.9505 29.6476 33.2182 29.1411 33.2182H22.871Z" fill="#B7EDC2"/>
    <path d="M37.7429 5.14836C37.184 5.26435 36.6339 5.43388 36.0837 5.59448L27.9711 8.00356C28.1507 8.30446 28.2612 8.64294 28.2942 8.99381C28.3553 9.29717 28.1106 9.46683 27.9185 9.63636C27.9265 9.94355 27.9916 10.2464 28.1106 10.5286C28.1805 10.7784 28.1106 10.8676 27.8835 10.9301L23.0631 12.322L18.0072 13.7942C18.7757 15.8196 19.3607 17.9253 19.9108 19.8258C20.7841 22.9932 21.7359 26.125 22.8363 29.2211L25.7356 28.3289L26.2945 28.1505C26.1531 27.8696 26.053 27.5689 25.9975 27.2582C25.6831 26.1786 25.3775 25.099 25.1242 24.0104C24.9932 23.5464 25.1242 23.3323 25.5608 23.1984L27.7527 22.5471C28.1894 22.4222 28.399 22.5471 28.5212 22.9843C28.9229 24.3762 29.3071 25.7681 29.7001 27.16L31.9968 26.4998C31.9444 26.2945 31.9095 26.0804 31.8397 25.8841C31.752 25.7239 31.7249 25.5364 31.7635 25.3572C31.8022 25.1779 31.9038 25.0194 32.0492 24.9116C32.189 24.8134 32.154 24.6707 32.1191 24.5457C32.0841 24.4208 31.9706 24.0282 31.9007 23.7695C31.8309 23.5107 31.7349 23.1628 31.3245 23.1182C31.0625 23.1182 30.9838 22.8237 30.9227 22.6096C30.7655 22.1278 30.6433 21.637 30.5123 21.1463C30.4698 21.03 30.4638 20.9031 30.4951 20.7832C30.5264 20.6633 30.5934 20.5563 30.6869 20.4771C30.7703 20.4252 30.8306 20.3421 30.8551 20.2455C30.8796 20.1489 30.8662 20.0464 30.8179 19.9596C30.7306 19.692 30.6694 19.4153 30.5996 19.1477C30.5297 18.88 30.4773 18.5498 30.0494 18.5677C29.8748 18.5677 29.7351 18.3982 29.6827 18.1929C29.543 17.6844 29.3771 17.1936 29.2461 16.685C29.194 16.5529 29.1846 16.4073 29.2191 16.2692C29.2537 16.1312 29.3304 16.0081 29.4382 15.9177C29.516 15.8649 29.5705 15.7831 29.5901 15.6897C29.6097 15.5963 29.5928 15.4988 29.543 15.4181C29.452 15.181 29.3818 14.9362 29.3334 14.6864C29.2723 14.3384 29.1762 14.0618 28.7483 14.0262C28.5474 14.0262 28.4252 13.8031 28.3728 13.5979C28.2506 13.1875 28.137 12.777 28.0322 12.3577C27.9275 11.9383 27.8314 11.5635 28.268 11.278C28.268 11.278 28.3291 11.2067 28.3204 11.1799C28.1457 10.6802 28.5562 10.707 28.8182 10.6267C29.5255 10.4215 30.2328 10.243 30.9402 10.0467C30.9706 9.94257 31.0295 9.84946 31.11 9.77834C31.1904 9.70722 31.289 9.66102 31.3943 9.64519L36.4679 8.15515C36.5769 8.11106 36.6958 8.09858 36.8114 8.11905C36.9269 8.13951 37.0347 8.19213 37.1228 8.27115C37.8403 7.98666 38.5755 7.7512 39.3235 7.56629C39.83 7.39676 40.354 7.27186 40.8692 7.1291C40.6647 6.4724 40.2373 5.9119 39.6641 5.54871C39.0909 5.18553 38.4096 5.0436 37.7429 5.14836Z" fill="#42CE7E"/>
    <path d="M44.5192 21.4941C44.3882 21.387 44.3882 21.4941 44.362 21.5922C44.1532 22.1972 43.7657 22.721 43.2529 23.0912C43.0064 23.2453 42.7426 23.3681 42.4671 23.4571L31.9879 26.5621C31.9355 26.3568 31.9005 26.1427 31.8307 25.9464C31.743 25.7862 31.7159 25.5987 31.7546 25.4194C31.7932 25.2401 31.8948 25.0816 32.0403 24.9739C32.18 24.8757 32.145 24.7329 32.1101 24.608C32.0752 24.4831 31.9616 24.0905 31.8918 23.8318C31.8219 23.573 31.7259 23.2251 31.3155 23.1805C31.0535 23.1805 30.9748 22.886 30.9137 22.6719C30.7565 22.1901 30.6343 21.6993 30.5033 21.2086C30.4608 21.0923 30.4548 20.9654 30.4861 20.8455C30.5174 20.7256 30.5845 20.6186 30.678 20.5394C30.7614 20.4875 30.8218 20.4044 30.8462 20.3078C30.8707 20.2112 30.8573 20.1086 30.8089 20.0219C30.7216 19.7542 30.6605 19.4776 30.5906 19.2099C30.5208 18.9423 30.4684 18.6121 30.0405 18.63C29.8658 18.63 29.7261 18.4605 29.6737 18.2552C29.534 17.7467 29.3681 17.2559 29.2371 16.7473C29.185 16.6152 29.1756 16.4695 29.2101 16.3315C29.2447 16.1935 29.3214 16.0704 29.4292 15.98C29.507 15.9272 29.5615 15.8454 29.5811 15.752C29.6007 15.6586 29.5838 15.5611 29.534 15.4804C29.443 15.2433 29.3729 14.9985 29.3244 14.7487C29.2633 14.4007 29.1672 14.1241 28.7393 14.0885C28.5384 14.0885 28.4162 13.8654 28.3639 13.6601C28.2416 13.2497 28.1281 12.8393 28.0233 12.42C27.9185 12.0006 27.8224 11.6258 28.2591 11.3403C28.2591 11.3403 28.3201 11.2689 28.3114 11.2422C28.1368 10.7425 28.5472 10.7693 28.8092 10.689C29.5166 10.4838 30.2239 10.3053 30.9312 10.109C31.0168 10.6374 31.1483 11.157 31.3242 11.6615C31.4727 12.2147 31.6473 12.304 32.1975 12.1434L34.5465 11.4563L37.1663 10.6711C37.472 10.573 37.699 10.4124 37.5942 10.0287C37.437 9.46662 37.2712 8.89556 37.1052 8.33344C37.8227 8.04895 38.5578 7.8135 39.3058 7.62859C39.8123 7.45906 40.3362 7.3341 40.8515 7.19134C41.1047 8.08359 41.3405 8.97588 41.6199 9.80567C41.7335 10.1715 41.6199 10.3499 41.2968 10.5105C40.8816 10.6922 40.5119 10.9674 40.2155 11.3157C39.9191 11.664 39.7035 12.0762 39.5851 12.5216C39.4666 12.967 39.4483 13.4341 39.5315 13.8877C39.6148 14.3414 39.7974 14.7699 40.0656 15.1413C40.3844 15.6164 40.8314 15.9865 41.3524 16.2067C41.8733 16.4269 42.4457 16.4877 42.9998 16.3815C43.3753 16.328 43.4975 16.4618 43.5848 16.783C43.838 17.7288 44.1088 18.6657 44.3707 19.6025C44.3707 19.6828 44.3707 19.8613 44.5454 19.7988L44.5192 21.4941ZM37.8213 22.6273L38.1008 22.5648L41.0523 21.6726C41.4889 21.5476 41.7335 21.2175 41.6549 20.8695C41.5763 20.5215 41.2008 20.3074 40.7031 20.4502L39.7599 20.7268C39.0176 20.9498 38.2667 21.1551 37.5331 21.396C37.4609 21.4107 37.3923 21.4401 37.3314 21.4825C37.2706 21.5249 37.2187 21.5793 37.1788 21.6425C37.1389 21.7057 37.1118 21.7766 37.0992 21.8507C37.0865 21.9248 37.0886 22.0008 37.1052 22.0741C37.1664 22.4399 37.3584 22.654 37.83 22.6362L37.8213 22.6273ZM37.1838 20.4502C37.2564 20.4569 37.3295 20.4569 37.4021 20.4502C38.45 20.1468 39.4979 19.8345 40.5371 19.5579C40.6213 19.5424 40.7015 19.5091 40.7725 19.4604C40.8435 19.4117 40.9038 19.3484 40.9497 19.2746C40.9957 19.2009 41.0263 19.1182 41.0394 19.0319C41.0525 18.9455 41.048 18.8573 41.0262 18.7728C40.9995 18.6899 40.9571 18.6133 40.9014 18.5473C40.8456 18.4814 40.7776 18.4273 40.7013 18.3883C40.625 18.3493 40.5418 18.3261 40.4567 18.3201C40.3716 18.3142 40.2861 18.3254 40.2053 18.3534C39.1049 18.6567 38.0134 18.9869 36.9218 19.3259C36.7783 19.3601 36.6534 19.45 36.5735 19.5765C36.4937 19.7031 36.4651 19.8564 36.4939 20.0041C36.5376 20.2985 36.7821 20.4591 37.1838 20.4591V20.4502Z" fill="url(#paint0_linear_1035_21076)"/>
    <path d="M28.1106 10.5729C27.9916 10.2907 27.9265 9.98788 27.9185 9.6807C27.1762 9.6807 26.9055 9.31487 26.888 8.33339L26.6261 8.39586L16.8717 11.2243C17.3018 12.0738 17.6865 12.9465 18.0244 13.8385L23.0806 12.3664L27.901 10.9745C28.0931 10.912 28.2241 10.7871 28.1106 10.5729Z" fill="#4DB276"/>
    <path d="M27.9185 9.63636C27.1762 9.63636 26.9057 9.27042 26.8882 8.28895L27.9711 8.00356C28.1507 8.30446 28.2612 8.64294 28.2942 8.99381C28.3553 9.29717 28.1106 9.46683 27.9185 9.63636Z" fill="#D0DFF3"/>
    <path d="M43.2531 23.1004C43.0066 23.2544 42.7427 23.3773 42.4672 23.4662L31.988 26.5712L29.6913 27.2313L26.3291 28.2395L25.7702 28.418L22.8711 29.3104C22.9846 29.6316 23.0894 29.9529 23.2117 30.2741C23.334 30.5953 23.5086 31.0503 23.6658 31.425L24.7312 31.1128L36.5115 27.6419L39.8037 26.6783C39.9344 26.665 40.066 26.665 40.1966 26.6783C40.1966 26.6337 40.1966 26.598 40.1966 26.5623C40.2836 25.8406 40.62 25.1744 41.1452 24.6836C41.6703 24.1929 42.3497 23.9099 43.061 23.8855C43.2182 23.8855 43.2793 23.7963 43.2705 23.6535C43.2618 23.5108 43.2618 23.2788 43.2531 23.1004Z" fill="#1A6B3B"/>
    <path d="M29.6565 27.2315L26.2943 28.2397C26.1529 27.9588 26.0528 27.6581 25.9973 27.3474C25.6829 26.2678 25.3773 25.1882 25.1241 24.0996C24.9931 23.6356 25.1241 23.4215 25.5607 23.2877L27.7526 22.6364C28.1892 22.5115 28.3988 22.6364 28.5211 23.0736C28.8791 24.4476 29.2635 25.8396 29.6565 27.2315Z" fill="url(#paint1_linear_1035_21076)"/>
    <path d="M37.0792 8.34262C37.2452 8.90474 37.4111 9.47578 37.5683 10.0379C37.6731 10.4216 37.4461 10.5822 37.1404 10.6803L34.5206 11.4655L32.1716 12.1526C31.6302 12.3132 31.4555 12.2239 31.2983 11.6707C31.1225 11.1662 30.9909 10.6466 30.9053 10.1182C30.9358 10.0141 30.9947 9.92098 31.0751 9.84985C31.1556 9.77873 31.2542 9.73254 31.3594 9.7167L36.4331 8.22666C36.541 8.18433 36.6581 8.17274 36.7719 8.19317C36.8857 8.2136 36.9919 8.26525 37.0792 8.34262Z" fill="#43BA76"/>
    <path d="M43.2096 30.0151C43.0699 29.8188 42.7379 29.9259 42.4934 29.8635C41.789 29.6899 41.1678 29.2662 40.7407 28.6681C40.3137 28.07 40.1086 27.3362 40.1619 26.5978C40.0312 26.5846 39.8995 26.5846 39.7689 26.5978L36.4766 27.5615L24.7311 31.068L23.6659 31.3803C23.7445 31.5677 23.8231 31.755 23.9105 31.9424H29.2111C29.674 31.9424 29.9709 32.219 29.9709 32.5848C29.9709 32.9506 29.6827 33.2183 29.1762 33.2183H24.4867C25.0194 34.3515 25.5783 35.4668 26.1285 36.5821H40.4151C40.7983 36.5833 41.178 36.5063 41.5316 36.3554C41.8852 36.2045 42.2057 35.9829 42.4742 35.7035C42.7428 35.4242 42.9539 35.0928 43.0952 34.7288C43.2365 34.3648 43.305 33.9756 43.2969 33.5841C43.2969 32.6859 43.2969 31.7937 43.2969 30.9074C43.2619 30.5862 43.3668 30.2471 43.2096 30.0151ZM39.1926 33.3521C39.1926 33.7804 39.0266 33.941 38.6162 33.941H32.9225C32.5121 33.941 32.3548 33.7804 32.3461 33.3611C32.3374 32.9417 32.3461 32.4688 32.3461 32.0673C32.3461 31.6658 32.5033 31.5052 32.8963 31.5052H38.59C39.0353 31.5052 39.1838 31.648 39.1926 32.103C39.2013 32.5581 39.2013 32.9328 39.1926 33.3521Z" fill="#249B57"/>
    <path d="M37.83 22.6362C37.3672 22.6362 37.1754 22.4399 37.1143 22.1276C37.0976 22.0543 37.0955 21.9783 37.1082 21.9042C37.1208 21.8301 37.1479 21.7593 37.1878 21.6961C37.2277 21.6328 37.2796 21.5784 37.3405 21.536C37.4013 21.4937 37.4699 21.4643 37.5421 21.4495C38.2757 21.2086 39.0266 21.0034 39.7689 20.7803L40.7121 20.5037C41.2099 20.3609 41.5853 20.5037 41.6639 20.923C41.7425 21.3424 41.4979 21.6012 41.0613 21.7261L38.1097 22.6183L37.83 22.6362Z" fill="#F46E00"/>
    <path d="M37.1838 20.4591C36.7821 20.4591 36.5376 20.2983 36.494 19.9414C36.4652 19.7937 36.4937 19.6404 36.5736 19.5139C36.6535 19.3873 36.7783 19.2975 36.9219 19.2633C38.0134 18.9242 39.105 18.5941 40.2053 18.2907C40.2862 18.2628 40.3717 18.2516 40.4568 18.2576C40.5419 18.2636 40.625 18.2867 40.7013 18.3257C40.7777 18.3647 40.8457 18.4187 40.9014 18.4847C40.9572 18.5507 40.9996 18.6273 41.0263 18.7101C41.0481 18.7946 41.0526 18.8828 41.0395 18.9692C41.0263 19.0556 40.9958 19.1383 40.9498 19.212C40.9039 19.2858 40.8436 19.349 40.7726 19.3978C40.7015 19.4465 40.6214 19.4797 40.5372 19.4953C39.498 19.8165 38.4501 20.1288 37.4022 20.3875C37.3318 20.4184 37.2586 20.4425 37.1838 20.4591Z" fill="#F46E00"/>
    <path d="M38.5898 31.4961C39.0351 31.4961 39.1836 31.6389 39.1924 32.0939C39.2011 32.549 39.1924 32.9237 39.1924 33.3431C39.1924 33.7624 39.0264 33.9319 38.616 33.9319H32.9223C32.5119 33.9319 32.3546 33.7713 32.3459 33.352C32.3372 32.9326 32.3459 32.4598 32.3459 32.0582C32.3459 31.6567 32.5031 31.4961 32.8961 31.4961H38.5898Z" fill="#D3F2DB"/>
    <path d="M29.1759 31.9422L23.8578 31.9422C24.0412 32.3705 24.2333 32.8345 24.4342 33.2181H29.1236C29.6301 33.2181 29.9095 32.9861 29.9182 32.5846C29.9269 32.1831 29.6388 31.9422 29.1759 31.9422Z" fill="#B7EDC2"/>
    <path d="M12.5578 20.2361C12.5666 20.1603 12.5995 20.0894 12.6516 20.0346C12.7037 19.9797 12.772 19.944 12.846 19.9327L13.6668 19.7007C13.7366 19.7007 13.7541 19.6472 13.7628 19.5758L13.8938 18.6836C13.943 18.42 14.0463 18.17 14.1968 17.9501C14.3473 17.7302 14.5416 17.5453 14.7671 17.4077C15.2686 17.0638 15.8116 16.7879 16.3826 16.5868C16.9818 16.3635 17.6024 16.205 18.234 16.1139C18.7352 16.0426 19.2436 16.0426 19.7448 16.1139C20.1404 16.1816 20.5011 16.3864 20.7664 16.6939C20.976 16.9169 21.1594 17.1579 21.3603 17.3899C21.3733 17.4145 21.3946 17.4335 21.4203 17.4433C21.446 17.4532 21.4743 17.4532 21.5 17.4434L22.3733 17.1846C22.4178 17.1642 22.4667 17.156 22.5152 17.1609C22.5637 17.1657 22.6101 17.1835 22.6498 17.2123C22.6895 17.2412 22.7212 17.2802 22.7416 17.3254C22.762 17.3706 22.7705 17.4205 22.7662 17.4701L22.8187 18.1393C22.8313 18.2162 22.8135 18.2951 22.7693 18.3587C22.7251 18.4222 22.6581 18.4653 22.5829 18.4784L22.3208 18.5587L22.3994 18.6212C22.7596 18.8899 23.0133 19.2819 23.1143 19.7257C23.2153 20.1695 23.1568 20.6356 22.9496 21.0391C22.939 21.0645 22.9336 21.0918 22.9336 21.1194C22.9336 21.147 22.939 21.1743 22.9496 21.1997C23.0282 21.4942 23.1068 21.7797 23.1941 22.092C23.2141 22.1487 23.2219 22.2092 23.2169 22.2693C23.212 22.3294 23.1943 22.3876 23.1653 22.4401C23.1363 22.4926 23.0966 22.5381 23.0488 22.5735C23.001 22.6089 22.9464 22.6333 22.8885 22.6452L22.0152 22.895C21.9609 22.9155 21.9028 22.9237 21.8451 22.9191C21.7873 22.9145 21.7312 22.8972 21.6806 22.8684C21.63 22.8396 21.5861 22.7999 21.5519 22.7522C21.5178 22.7044 21.4941 22.6496 21.4825 22.5916L21.3778 22.2169L16.2692 23.7069C16.2692 23.8408 16.3478 23.9657 16.374 24.0906C16.3941 24.1449 16.4024 24.2031 16.3984 24.261C16.3944 24.319 16.3781 24.3753 16.3507 24.4262C16.3233 24.4771 16.2854 24.5213 16.2397 24.5558C16.1939 24.5903 16.1414 24.6142 16.0857 24.626L15.2125 24.8758C15.157 24.8978 15.0975 24.907 15.0382 24.9027C14.9788 24.8983 14.9211 24.8806 14.8693 24.8507C14.8175 24.8208 14.7729 24.7795 14.7386 24.7299C14.7043 24.6802 14.6812 24.6234 14.671 24.5635C14.5837 24.2691 14.5051 23.9657 14.4178 23.6713C14.399 23.6255 14.3689 23.5855 14.3305 23.5553C13.9444 23.3266 13.6511 22.9642 13.5038 22.5338C13.3564 22.1034 13.3648 21.6334 13.5271 21.2086C13.5299 21.1849 13.5299 21.161 13.5271 21.1373L13.3088 21.1997C13.2708 21.2184 13.2292 21.2285 13.187 21.2295C13.1448 21.2305 13.1029 21.2223 13.0641 21.2054C13.0252 21.1885 12.9903 21.1633 12.9617 21.1316C12.9331 21.0998 12.9115 21.0622 12.8983 21.0213L12.5839 20.4235L12.5578 20.2361ZM20.8189 18.0501C20.5978 17.7282 20.3463 17.4294 20.0679 17.1579C19.9547 17.0516 19.8161 16.9778 19.6661 16.9437C19.3158 16.8901 18.9597 16.8901 18.6095 16.9437C17.8357 17.029 17.0774 17.2242 16.3565 17.5237C15.8983 17.6937 15.4683 17.9344 15.0815 18.2374C14.9841 18.3035 14.9007 18.3889 14.8362 18.4886C14.7717 18.5882 14.7274 18.7 14.706 18.8174C14.6449 19.1743 14.6012 19.5402 14.5575 19.8971L20.8189 18.0501ZM21.9279 20.0219C21.8708 19.8127 21.7349 19.6352 21.5499 19.5282C21.365 19.4211 21.1461 19.3934 20.9411 19.4509C20.7409 19.515 20.5727 19.6557 20.4718 19.8436C20.3708 20.0316 20.345 20.2522 20.3997 20.4592C20.4587 20.6667 20.5953 20.8421 20.7801 20.9474C20.9648 21.0526 21.1827 21.0791 21.3865 21.0213C21.5874 20.9611 21.7568 20.8225 21.8582 20.6354C21.9596 20.4483 21.9847 20.2278 21.9279 20.0219ZM15.6666 22.6987C15.8119 22.6454 15.9387 22.5496 16.031 22.4232C16.1234 22.2968 16.1774 22.1455 16.186 21.9879C16.1947 21.8304 16.1578 21.6738 16.0799 21.5376C16.002 21.4014 15.8865 21.2917 15.7479 21.2221C15.6093 21.1525 15.4538 21.1262 15.3006 21.1464C15.1475 21.1666 15.0036 21.2324 14.8869 21.3357C14.7702 21.439 14.6858 21.575 14.6443 21.727C14.6028 21.8789 14.606 22.0401 14.6536 22.1902C14.6878 22.2909 14.7413 22.3836 14.811 22.463C14.8807 22.5424 14.9651 22.6068 15.0594 22.6525C15.1537 22.6982 15.256 22.7242 15.3602 22.7291C15.4645 22.7339 15.5686 22.7176 15.6666 22.6809V22.6987Z" fill="#D3F2DB"/>
  </g>
  <path d="M37.4779 5.14908C36.919 5.26507 36.3689 5.4346 35.8187 5.5952L27.706 8.00428C27.8857 8.30518 27.9962 8.64381 28.0292 8.99467C28.0903 9.29803 27.8458 9.46759 27.6537 9.63711C27.6617 9.9443 27.7269 10.2471 27.8458 10.5294C27.9157 10.7792 27.8458 10.8684 27.6187 10.9308L22.7983 12.3227L17.7422 13.795C18.5107 15.8204 19.0957 17.9261 19.6458 19.8266C20.5191 22.994 21.4709 26.1258 22.5713 29.2219L25.4706 28.3297L26.0295 28.1513C25.8881 27.8704 25.788 27.5697 25.7325 27.259C25.4181 26.1794 25.1124 25.0998 24.8592 24.0112C24.7282 23.5472 24.8592 23.3331 25.2958 23.1992L27.4877 22.5479C27.9244 22.423 28.134 22.5479 28.2562 22.9851C28.6579 24.377 29.0421 25.7689 29.4351 27.1608L31.7318 26.5006C31.6794 26.2953 31.6445 26.0812 31.5747 25.8849C31.487 25.7247 31.4599 25.5372 31.4985 25.358C31.5372 25.1787 31.6388 25.0202 31.7842 24.9124C31.924 24.8142 31.889 24.6715 31.8541 24.5465C31.8191 24.4216 31.7056 24.029 31.6357 23.7703C31.5659 23.5115 31.4699 23.1636 31.0595 23.119C30.7975 23.119 30.7188 22.8245 30.6577 22.6104C30.5005 22.1286 30.3783 21.6378 30.2473 21.1471C30.2048 21.0308 30.1988 20.9039 30.2301 20.784C30.2614 20.6641 30.3284 20.5571 30.4219 20.4779C30.5053 20.426 30.5656 20.3429 30.5901 20.2463C30.6146 20.1497 30.6012 20.0472 30.5529 19.9604C30.4656 19.6928 30.4044 19.4161 30.3346 19.1485C30.2647 18.8808 30.2123 18.5506 29.7844 18.5685C29.6098 18.5685 29.4701 18.399 29.4177 18.1937C29.278 17.6852 29.1121 17.1944 28.9811 16.6858C28.929 16.5537 28.9196 16.4081 28.9541 16.27C28.9887 16.132 29.0654 16.0089 29.1732 15.9185C29.251 15.8657 29.3055 15.7839 29.3251 15.6905C29.3447 15.5971 29.3278 15.4996 29.278 15.4189C29.187 15.1818 29.1168 14.937 29.0684 14.6872C29.0073 14.3392 28.9112 14.0626 28.4833 14.027C28.2824 14.027 28.1602 13.8039 28.1078 13.5987C27.9856 13.1883 27.872 12.7778 27.7672 12.3585C27.6624 11.9391 27.5664 11.5643 28.003 11.2788C28.003 11.2788 28.0641 11.2075 28.0554 11.1807C27.8807 10.681 28.2912 10.7078 28.5532 10.6275C29.2605 10.4223 29.9678 10.2438 30.6752 10.0475C30.7056 9.94337 30.7645 9.85026 30.845 9.77914C30.9254 9.70802 31.024 9.66182 31.1293 9.64599L36.2029 8.15595C36.3119 8.11186 36.4308 8.09938 36.5464 8.11985C36.6619 8.14031 36.7697 8.19293 36.8578 8.27195C37.5753 7.98746 38.3105 7.752 39.0585 7.56709C39.565 7.39757 40.0889 7.27266 40.6042 7.1299C40.3997 6.4732 39.9723 5.9127 39.3991 5.54951C38.8258 5.18633 38.1446 5.04432 37.4779 5.14908Z" fill="#42CE7E"/>
  <path d="M44.2546 21.4956C44.1236 21.3886 44.1235 21.4956 44.0973 21.5938C43.8886 22.1987 43.501 22.7225 42.9883 23.0927C42.7418 23.2468 42.4779 23.3697 42.2024 23.4586L31.7232 26.5636C31.6709 26.3584 31.6359 26.1442 31.566 25.9479C31.4783 25.7877 31.4513 25.6002 31.4899 25.4209C31.5285 25.2417 31.6302 25.0832 31.7756 24.9754C31.9153 24.8773 31.8803 24.7345 31.8454 24.6096C31.8105 24.4847 31.697 24.0921 31.6271 23.8333C31.5572 23.5746 31.4613 23.2266 31.0508 23.182C30.7888 23.182 30.7102 22.8875 30.649 22.6734C30.4919 22.1916 30.3696 21.7008 30.2386 21.2101C30.1962 21.0938 30.1902 20.9669 30.2215 20.847C30.2528 20.7271 30.3199 20.6201 30.4134 20.5409C30.4968 20.489 30.5571 20.4059 30.5816 20.3093C30.606 20.2127 30.5926 20.1101 30.5443 20.0234C30.4569 19.7557 30.3958 19.4792 30.3259 19.2115C30.2561 18.9438 30.2037 18.6137 29.7758 18.6315C29.6011 18.6315 29.4615 18.462 29.4091 18.2568C29.2694 17.7482 29.1034 17.2574 28.9724 16.7489C28.9204 16.6167 28.9109 16.471 28.9455 16.333C28.98 16.195 29.0567 16.0719 29.1645 15.9815C29.2424 15.9287 29.2969 15.8469 29.3164 15.7535C29.336 15.6602 29.3191 15.5627 29.2693 15.4819C29.1783 15.2449 29.1082 15 29.0597 14.7502C28.9986 14.4023 28.9025 14.1257 28.4746 14.09C28.2738 14.09 28.1516 13.8669 28.0992 13.6617C27.9769 13.2512 27.8634 12.8408 27.7586 12.4215C27.6538 12.0021 27.5578 11.6274 27.9944 11.3418C27.9944 11.3418 28.0555 11.2705 28.0467 11.2437C27.8721 10.7441 28.2826 10.7708 28.5446 10.6905C29.2519 10.4853 29.9592 10.3068 30.6665 10.1105C30.7521 10.6389 30.8837 11.1585 31.0596 11.663C31.208 12.2162 31.3827 12.3055 31.9328 12.1449L34.2818 11.4578L36.9016 10.6727C37.2073 10.5745 37.4343 10.4139 37.3295 10.0303C37.1723 9.46815 37.0065 8.89709 36.8406 8.33497C37.558 8.05049 38.2931 7.81503 39.0411 7.63012C39.5476 7.46059 40.0716 7.33563 40.5868 7.19287C40.84 8.08512 41.0758 8.97741 41.3553 9.80721C41.4688 10.173 41.3553 10.3515 41.0322 10.5121C40.6169 10.6937 40.2473 10.969 39.9508 11.3172C39.6544 11.6655 39.4388 12.0778 39.3204 12.5232C39.202 12.9686 39.1837 13.4356 39.2669 13.8893C39.3501 14.3429 39.5327 14.7715 39.8009 15.1428C40.1197 15.6179 40.5668 15.9881 41.0877 16.2083C41.6086 16.4284 42.181 16.4892 42.7351 16.3831C43.1106 16.3295 43.2328 16.4633 43.3201 16.7845C43.5734 17.7303 43.8441 18.6672 44.1061 19.6041C44.1061 19.6844 44.106 19.8628 44.2807 19.8003L44.2546 21.4956ZM37.5566 22.6288L37.8361 22.5663L40.7876 21.6741C41.2243 21.5492 41.4688 21.219 41.3902 20.871C41.3116 20.5231 40.9362 20.309 40.4384 20.4517L39.4952 20.7283C38.7529 20.9514 38.002 21.1566 37.2685 21.3975C37.1962 21.4123 37.1276 21.4417 37.0668 21.484C37.0059 21.5264 36.954 21.5808 36.9141 21.644C36.8742 21.7073 36.8471 21.7781 36.8345 21.8522C36.8218 21.9264 36.8239 22.0023 36.8406 22.0756C36.9017 22.4414 37.0938 22.6556 37.5653 22.6377L37.5566 22.6288ZM36.9191 20.4517C36.9917 20.4585 37.0648 20.4585 37.1374 20.4517C38.1854 20.1484 39.2332 19.8361 40.2724 19.5595C40.3566 19.5439 40.4368 19.5107 40.5078 19.4619C40.5788 19.4132 40.6391 19.3499 40.6851 19.2762C40.731 19.2024 40.7616 19.1198 40.7747 19.0334C40.7879 18.947 40.7834 18.8588 40.7615 18.7743C40.7349 18.6915 40.6924 18.6149 40.6367 18.5489C40.5809 18.4829 40.5129 18.4289 40.4366 18.3899C40.3603 18.3509 40.2772 18.3277 40.1921 18.3217C40.1069 18.3157 40.0214 18.327 39.9406 18.3549C38.8403 18.6583 37.7487 18.9884 36.6571 19.3275C36.5136 19.3616 36.3887 19.4515 36.3088 19.578C36.229 19.7046 36.2004 19.8579 36.2292 20.0056C36.2729 20.3 36.5174 20.4606 36.9191 20.4606V20.4517Z" fill="url(#paint2_linear_1035_21076)"/>
  <path d="M27.8463 10.573C27.7274 10.2908 27.6622 9.98799 27.6542 9.6808C26.912 9.6808 26.6412 9.31497 26.6237 8.3335L26.3618 8.39596L16.6074 11.2244C17.0375 12.0739 17.4222 12.9466 17.7601 13.8387L22.8163 12.3665L27.6367 10.9746C27.8289 10.9121 27.9598 10.7872 27.8463 10.573Z" fill="#4DB276"/>
  <path d="M27.6535 9.63771C26.9113 9.63771 26.6405 9.27188 26.623 8.29041L27.7059 8.00488C27.8856 8.30578 27.996 8.6444 28.029 8.99526C28.0901 9.29863 27.8457 9.46818 27.6535 9.63771Z" fill="#D0DFF3"/>
  <path d="M42.9894 23.1006C42.7429 23.2546 42.479 23.3775 42.2035 23.4664L31.7244 26.5714L29.4277 27.2317L26.0655 28.2399L25.5066 28.4184L22.6074 29.3107C22.7209 29.6319 22.8258 29.9531 22.948 30.2743C23.0703 30.5955 23.2449 31.0505 23.4021 31.4253L24.4675 31.113L36.2478 27.6422L39.54 26.6785C39.6707 26.6653 39.8023 26.6653 39.9329 26.6785C39.9329 26.6339 39.9329 26.5982 39.9329 26.5625C40.0199 25.8408 40.3563 25.1746 40.8815 24.6839C41.4066 24.1931 42.086 23.9101 42.7973 23.8858C42.9545 23.8858 43.0156 23.7965 43.0069 23.6538C42.9981 23.511 42.9981 23.279 42.9894 23.1006Z" fill="#1A6B3B"/>
  <path d="M29.3913 27.2318L26.0293 28.24C25.8879 27.9591 25.7878 27.6585 25.7323 27.3478C25.4179 26.2682 25.1123 25.1885 24.859 24.1C24.728 23.636 24.859 23.4219 25.2956 23.2881L27.4875 22.6367C27.9242 22.5118 28.1338 22.6367 28.256 23.0739C28.6141 24.448 28.9983 25.8399 29.3913 27.2318Z" fill="url(#paint3_linear_1035_21076)"/>
  <path d="M36.8147 8.34388C36.9806 8.90599 37.1464 9.477 37.3036 10.0391C37.4084 10.4228 37.1814 10.5834 36.8757 10.6816L34.2559 11.4667L31.9069 12.1538C31.3655 12.3144 31.1908 12.2251 31.0337 11.6719C30.8578 11.1674 30.7262 10.6478 30.6406 10.1194C30.6711 10.0153 30.73 9.92219 30.8104 9.85107C30.8909 9.77995 30.9895 9.73375 31.0947 9.71792L36.1685 8.22788C36.2763 8.18555 36.3934 8.17396 36.5072 8.19439C36.6211 8.21482 36.7274 8.26651 36.8147 8.34388Z" fill="#43BA76"/>
  <path d="M42.946 30.0159C42.8063 29.8196 42.4744 29.9267 42.2299 29.8642C41.5254 29.6906 40.9042 29.267 40.4771 28.6688C40.0501 28.0707 39.845 27.3369 39.8983 26.5986C39.7676 26.5853 39.6359 26.5853 39.5053 26.5986L36.2131 27.5622L24.4677 31.0687L23.4023 31.381C23.4809 31.5684 23.5596 31.7558 23.6469 31.9432H28.9475C29.4104 31.9432 29.7073 32.2197 29.7073 32.5856C29.7073 32.9514 29.4191 33.2191 28.9126 33.2191H24.2232C24.7559 34.3522 25.3147 35.4675 25.8649 36.5828H40.1515C40.5347 36.5841 40.9144 36.507 41.268 36.3562C41.6216 36.2053 41.9421 35.9836 42.2107 35.7043C42.4792 35.4249 42.6903 35.0935 42.8316 34.7295C42.9729 34.3656 43.0415 33.9763 43.0333 33.5849C43.0333 32.6867 43.0333 31.7944 43.0333 30.9081C42.9984 30.5869 43.1032 30.2479 42.946 30.0159ZM38.929 33.3529C38.929 33.7812 38.7631 33.9418 38.3526 33.9418H32.6589C32.2485 33.9418 32.0913 33.7812 32.0825 33.3618C32.0738 32.9425 32.0825 32.4695 32.0825 32.068C32.0825 31.6665 32.2397 31.5059 32.6327 31.5059H38.3264C38.7718 31.5059 38.9203 31.6487 38.929 32.1038C38.9377 32.5588 38.9377 32.9335 38.929 33.3529Z" fill="#249B57"/>
  <path d="M37.5662 22.6366C37.1034 22.6366 36.9113 22.4403 36.8502 22.128C36.8335 22.0547 36.8315 21.9788 36.8441 21.9046C36.8567 21.8305 36.8838 21.7597 36.9237 21.6965C36.9636 21.6332 37.0155 21.5788 37.0764 21.5364C37.1372 21.4941 37.2058 21.4647 37.2781 21.4499C38.0116 21.209 38.7625 21.0038 39.5048 20.7807L40.448 20.5041C40.9458 20.3614 41.3212 20.5041 41.3998 20.9234C41.4784 21.3428 41.2339 21.6016 40.7972 21.7265L37.8456 22.6187L37.5662 22.6366Z" fill="#F46E00"/>
  <path d="M36.9196 20.4595C36.5179 20.4595 36.2733 20.2989 36.2297 19.942C36.2009 19.7943 36.2295 19.641 36.3093 19.5145C36.3892 19.3879 36.5141 19.2981 36.6576 19.2639C37.7492 18.9248 38.8407 18.5947 39.9411 18.2913C40.0219 18.2634 40.1074 18.2522 40.1925 18.2582C40.2776 18.2642 40.3607 18.2873 40.4371 18.3263C40.5134 18.3653 40.5814 18.4193 40.6371 18.4853C40.6929 18.5513 40.7353 18.6279 40.762 18.7107C40.7838 18.7952 40.7883 18.8834 40.7752 18.9698C40.7621 19.0562 40.7315 19.1388 40.6855 19.2126C40.6396 19.2863 40.5793 19.3496 40.5083 19.3984C40.4373 19.4471 40.3571 19.4803 40.2729 19.4959C39.2337 19.8171 38.1858 20.1294 37.1379 20.3881C37.0675 20.419 36.9944 20.4429 36.9196 20.4595Z" fill="#F46E00"/>
  <path d="M35.5576 31.4968H38.3259C38.7712 31.4968 38.9197 31.6396 38.9285 32.0946C38.9372 32.5497 38.9285 32.9244 38.9285 33.3438C38.9285 33.7631 38.7625 33.9326 38.3521 33.9326H32.6584C32.248 33.9326 32.0907 33.772 32.082 33.3527C32.0733 32.9333 32.082 32.4605 32.082 32.0589C32.082 31.6574 32.2392 31.4968 32.6322 31.4968H35.5576Z" fill="#D3F2DB"/>
  <path d="M28.9119 31.9429H23.5938C23.7771 32.3712 23.9693 32.8351 24.1701 33.2188H28.8596C29.366 33.2188 29.6454 32.9868 29.6542 32.5853C29.6629 32.1838 29.3747 31.9429 28.9119 31.9429Z" fill="#B7EDC2"/>
  <path d="M12.293 20.2365C12.3017 20.1606 12.3347 20.0898 12.3868 20.035C12.4389 19.9801 12.5071 19.9444 12.5811 19.9331L13.4019 19.7011C13.4718 19.7011 13.4892 19.6476 13.498 19.5762L13.629 18.684C13.6781 18.4203 13.7814 18.1704 13.9319 17.9505C14.0825 17.7305 14.2768 17.5457 14.5022 17.4081C15.0038 17.0642 15.5468 16.7883 16.1178 16.5872C16.717 16.3639 17.3376 16.2054 17.9692 16.1143C18.4703 16.043 18.9787 16.043 19.4799 16.1143C19.8756 16.182 20.2363 16.3868 20.5016 16.6943C20.7111 16.9173 20.8946 17.1583 21.0954 17.3902C21.1085 17.4149 21.1298 17.4339 21.1554 17.4437C21.1811 17.4536 21.2095 17.4536 21.2352 17.4438L22.1084 17.185C22.1529 17.1646 22.2018 17.1564 22.2503 17.1612C22.2988 17.1661 22.3452 17.1838 22.385 17.2127C22.4247 17.2416 22.4563 17.2805 22.4767 17.3258C22.4972 17.371 22.5057 17.4209 22.5014 17.4705L22.5538 18.1397C22.5665 18.2166 22.5487 18.2955 22.5045 18.3591C22.4603 18.4226 22.3932 18.4657 22.318 18.4788L22.056 18.5591L22.1346 18.6216C22.4947 18.8903 22.7484 19.2822 22.8494 19.7261C22.9504 20.1699 22.892 20.636 22.6847 21.0395C22.6742 21.0649 22.6687 21.0922 22.6687 21.1198C22.6687 21.1474 22.6742 21.1747 22.6847 21.2001C22.7633 21.4946 22.8419 21.7801 22.9293 22.0924C22.9492 22.1491 22.957 22.2096 22.9521 22.2697C22.9471 22.3298 22.9295 22.388 22.9005 22.4405C22.8715 22.493 22.8317 22.5385 22.784 22.5739C22.7362 22.6093 22.6815 22.6337 22.6236 22.6455L21.7504 22.8954C21.696 22.9159 21.638 22.9241 21.5802 22.9195C21.5225 22.9149 21.4664 22.8976 21.4158 22.8688C21.3652 22.84 21.3213 22.8003 21.2871 22.7526C21.2529 22.7048 21.2292 22.65 21.2177 22.592L21.1129 22.2173L16.0043 23.7073C16.0043 23.8412 16.0829 23.9661 16.1091 24.091C16.1292 24.1453 16.1375 24.2035 16.1335 24.2614C16.1295 24.3194 16.1133 24.3757 16.0859 24.4266C16.0585 24.4775 16.0206 24.5217 15.9748 24.5562C15.9291 24.5907 15.8766 24.6146 15.8209 24.6264L14.9476 24.8762C14.8922 24.8982 14.8327 24.9074 14.7733 24.9031C14.714 24.8987 14.6563 24.881 14.6045 24.8511C14.5527 24.8212 14.5081 24.7799 14.4738 24.7303C14.4395 24.6806 14.4164 24.6238 14.4062 24.5639C14.3189 24.2695 14.2402 23.9661 14.1529 23.6717C14.1342 23.6259 14.1041 23.5859 14.0656 23.5557C13.6795 23.327 13.3863 22.9646 13.2389 22.5342C13.0916 22.1038 13.0999 21.6338 13.2623 21.209C13.265 21.1853 13.265 21.1614 13.2623 21.1376L13.044 21.2001C13.0059 21.2188 12.9643 21.2289 12.9221 21.2299C12.8799 21.2309 12.8381 21.2227 12.7992 21.2058C12.7604 21.1889 12.7254 21.1637 12.6969 21.132C12.6683 21.1002 12.6467 21.0626 12.6334 21.0216L12.3191 20.4239L12.293 20.2365ZM20.554 18.0505C20.333 17.7286 20.0814 17.4297 19.803 17.1583C19.6899 17.052 19.5512 16.9781 19.4012 16.9441C19.051 16.8905 18.6949 16.8905 18.3446 16.9441C17.5709 17.0294 16.8126 17.2246 16.0916 17.5241C15.6335 17.6941 15.2035 17.9348 14.8166 18.2378C14.7192 18.3039 14.6358 18.3893 14.5713 18.4889C14.5068 18.5886 14.4626 18.7004 14.4412 18.8178C14.38 19.1747 14.3363 19.5406 14.2927 19.8975L20.554 18.0505ZM21.6631 20.0223C21.606 19.8131 21.47 19.6356 21.2851 19.5286C21.1001 19.4215 20.8812 19.3938 20.6763 19.4513C20.476 19.5154 20.3079 19.6561 20.2069 19.844C20.106 20.032 20.0802 20.2526 20.1349 20.4596C20.1938 20.6671 20.3305 20.8425 20.5152 20.9477C20.6999 21.053 20.9179 21.0795 21.1217 21.0216C21.3225 20.9615 21.492 20.8229 21.5934 20.6358C21.6947 20.4486 21.7198 20.2282 21.6631 20.0223ZM15.4017 22.6991C15.5471 22.6458 15.6738 22.55 15.7662 22.4236C15.8586 22.2972 15.9125 22.1458 15.9212 21.9883C15.9299 21.8308 15.8929 21.6742 15.815 21.538C15.7371 21.4018 15.6216 21.2921 15.4831 21.2225C15.3445 21.1529 15.1889 21.1266 15.0358 21.1468C14.8826 21.167 14.7388 21.2328 14.6221 21.3361C14.5053 21.4393 14.4209 21.5754 14.3794 21.7274C14.338 21.8793 14.3412 22.0405 14.3887 22.1905C14.4229 22.2913 14.4765 22.384 14.5462 22.4634C14.6158 22.5428 14.7002 22.6072 14.7945 22.6529C14.8888 22.6986 14.9911 22.7246 15.0954 22.7295C15.1996 22.7343 15.3037 22.718 15.4017 22.6813V22.6991Z" fill="#D3F2DB"/>
  <defs>
    <linearGradient id="paint0_linear_1035_21076" x1="17.4747" y1="36.6062" x2="22.8482" y2="8.87599" gradientUnits="userSpaceOnUse">
      <stop stop-color="#FF4000"/>
      <stop offset="1" stop-color="#F2F91C"/>
    </linearGradient>
    <linearGradient id="paint1_linear_1035_21076" x1="40.6033" y1="1.04158" x2="27.058" y2="40.4923" gradientUnits="userSpaceOnUse">
      <stop stop-color="#4A017D"/>
      <stop offset="1" stop-color="#0B0146"/>
    </linearGradient>
    <linearGradient id="paint2_linear_1035_21076" x1="33.1903" y1="26.5547" x2="37.9335" y2="10.2446" gradientUnits="userSpaceOnUse">
      <stop stop-color="#FF4000"/>
      <stop offset="1" stop-color="#F2F91C"/>
    </linearGradient>
    <linearGradient id="paint3_linear_1035_21076" x1="28.9459" y1="21.8605" x2="25.6235" y2="27.9577" gradientUnits="userSpaceOnUse">
      <stop stop-color="#4A017D"/>
      <stop offset="1" stop-color="#0B0146"/>
    </linearGradient>
  </defs>
</svg>