<svg xmlns="http://www.w3.org/2000/svg" width="25" height="24" viewBox="0 0 25 24" fill="none">
  <path fill-rule="evenodd" clip-rule="evenodd" d="M4.63498 20.4775C4.99975 20.8129 5.49359 21.0008 6.0081 21H9.72039C10.1856 21 10.5 20.4652 10.5 20C10.5 18.8954 11.3954 18 12.5 18C13.6046 18 14.5 18.8954 14.5 20C14.5 20.4652 14.8144 21 15.2796 21H18.9885C19.2436 21.0008 19.4963 20.9552 19.7323 20.8657C19.9682 20.7763 20.1828 20.6447 20.3638 20.4786C20.5448 20.3125 20.6886 20.115 20.787 19.8975C20.8855 19.68 20.9366 19.4467 20.9375 19.2109V13.2734C20.9375 13.0296 21.1107 12.8264 21.2809 12.652C21.3747 12.5558 21.4413 12.4398 21.475 12.3142C21.5087 12.1886 21.5083 12.0572 21.474 11.9317C21.4396 11.8063 21.3723 11.6906 21.2781 11.5949L13.1297 3.25943C13.0498 3.17775 12.9524 3.11246 12.8435 3.06778C12.7347 3.02309 12.617 3 12.4979 3C12.3788 3 12.261 3.02309 12.1522 3.06778C12.0434 3.11246 11.9459 3.17775 11.8661 3.25943L3.72194 11.5949C3.62767 11.6906 3.56038 11.8063 3.52603 11.9317C3.49167 12.0572 3.49132 12.1886 3.525 12.3142C3.55868 12.4398 3.62535 12.5558 3.71911 12.652C3.88929 12.8264 4.06252 13.0296 4.06252 13.2734V19.2109C4.06433 19.6865 4.27021 20.142 4.63498 20.4775Z" />
</svg>