<svg xmlns="http://www.w3.org/2000/svg" width="48" height="48" viewBox="0 0 48 48" fill="none">
  <rect width="48" height="48" rx="12" fill="#DDE2EC"/>
  <path d="M25.8047 44.4939C37.5105 44.4939 47 34.9813 47 23.247C47 11.5126 37.5105 2 25.8047 2C14.0988 2 4.60938 11.5126 4.60938 23.247C4.60938 34.9813 14.0988 44.4939 25.8047 44.4939Z" fill="#DDE2EC"/>
  <path d="M24 47.9896C37.2548 47.9896 48 37.2468 48 23.9948C48 10.7428 37.2548 0 24 0C10.7452 0 0 10.7428 0 23.9948C0 37.2468 10.7452 47.9896 24 47.9896Z" fill="#DDE2EC"/>
  <path d="M29.5203 39.2409C27.9189 40.2042 26.1843 40.9268 24.3725 41.3853C23.9855 41.437 23.5919 41.37 23.2437 41.1934C19.8562 40.2264 16.8005 38.3459 14.4111 35.7579C12.0216 33.1699 10.3906 29.9742 9.6971 26.5211C9.38888 25.1665 9.24874 23.7792 9.27956 22.3904V12.4358C9.27956 11.8037 9.48274 11.6006 10.1036 11.6344C11.2325 11.7134 12.4515 11.6344 13.6143 11.6344C13.6143 11.736 13.5354 11.8376 13.4903 11.9392C12.079 15.1903 11.5833 18.7651 12.0566 22.2774C12.3854 24.8342 13.2262 27.2986 14.5287 29.5233C14.6642 29.7378 14.7318 30.0086 14.9915 30.1441C15.3721 30.8014 15.7985 31.4312 16.2673 32.0289C17.1527 33.1629 18.194 34.166 19.3604 35.0085C19.3604 35.1326 19.4506 35.1552 19.5522 35.1439C19.5522 35.2794 19.654 35.3245 19.7443 35.3923C21.6428 36.8368 23.7888 37.923 26.0772 38.5975C27.1995 38.9304 28.3535 39.146 29.5203 39.2409Z" fill="#1A6B3B"/>
  <path d="M22.8603 9.71789C23.1989 9.57117 23.5488 9.43571 23.8761 9.2777C23.9839 9.22731 24.1014 9.20117 24.2204 9.20117C24.3394 9.20117 24.4571 9.22731 24.5649 9.2777C26.0189 9.92608 27.5308 10.4362 29.0804 10.8013C30.3313 11.0888 31.5976 11.3036 32.8733 11.4447C34.7021 11.5875 36.5376 11.6289 38.3711 11.5688C38.9129 11.5688 39.116 11.7494 39.116 12.2798C39.116 16.0721 39.116 19.8643 39.116 23.6565C39.0561 25.4443 38.7014 27.2099 38.0662 28.8821H37.7388C36.4726 29.1655 35.1688 29.2418 33.8781 29.1078C33.9109 29.0119 33.9484 28.9177 33.9909 28.8257C34.6742 27.3308 35.0577 25.7165 35.1197 24.0741C35.1197 21.3428 35.1197 18.6115 35.1197 15.8802C35.1197 15.361 34.9506 15.203 34.4313 15.1917C33.0305 15.2275 31.6285 15.1898 30.2316 15.0789C28.3638 14.8751 26.5374 14.3919 24.8132 13.6455C24.6239 13.5511 24.4151 13.502 24.2036 13.502C23.992 13.502 23.7833 13.5511 23.5939 13.6455C22.9361 13.9588 22.2422 14.19 21.528 14.334C21.5167 14.195 21.5167 14.0554 21.528 13.9164C21.7168 12.5349 22.1286 11.1932 22.7473 9.94356C22.7974 9.85835 22.8211 9.7601 22.8151 9.6614L22.8603 9.71789Z" fill="#42CE7E"/>
  <path d="M33.8207 29.1983C35.1113 29.3323 36.4151 29.2561 37.6814 28.9727H38.0088C36.5167 33.2764 33.5602 36.9195 29.6552 39.2658H29.5648C28.3697 39.1617 27.1889 38.9309 26.0425 38.5773C23.7542 37.9027 21.6082 36.8165 19.7097 35.372C19.6194 35.3043 19.5176 35.2591 19.5176 35.1237C19.6075 35.162 19.6946 35.2073 19.7775 35.2591C21.0406 36.0688 22.4234 36.6744 23.8752 37.0537C24.0339 37.0985 24.2018 37.0985 24.3605 37.0537C24.9331 36.9205 25.4923 36.7354 26.0312 36.5006C26.1328 36.5006 26.2458 36.4442 26.3474 36.399C28.9243 35.3253 31.1274 33.5155 32.6805 31.196C33.1429 30.5785 33.5224 29.9031 33.8094 29.1871L33.8207 29.1983Z" fill="#25A45E"/>
  <path d="M22.7477 9.76367C22.7537 9.86237 22.7301 9.96062 22.6799 10.0458C22.0613 11.2954 21.6497 12.6372 21.4609 14.0187C21.4496 14.1576 21.4496 14.2973 21.4609 14.4362L21.3818 14.504H21.2236C19.7796 14.8669 18.3064 15.101 16.8211 15.2037C16.0422 15.2037 15.2745 15.2037 14.4955 15.2714H13.9424C13.4231 15.2714 13.2426 15.4407 13.2426 15.9486C13.2426 18.4767 13.2426 20.9936 13.2426 23.5217C13.2554 25.2939 13.6159 27.0463 14.3037 28.6796C14.5069 29.1649 14.7328 29.6389 14.9473 30.1129C14.6876 29.9775 14.6197 29.7066 14.4842 29.4922C13.1817 27.2675 12.3409 24.8032 12.0121 22.2464C11.5387 18.734 12.0345 15.1592 13.4458 11.9081C13.4458 11.8065 13.5362 11.7049 13.5701 11.6034L15.4213 11.4115C17.8183 11.1846 20.1773 10.6575 22.4429 9.84268L22.7477 9.76367Z" fill="#25A45E"/>
  <path d="M14.98 30.1228C14.7655 29.6487 14.5397 29.1748 14.3365 28.6895C13.6486 27.0561 13.2882 25.3037 13.2754 23.5316C13.2754 21.0034 13.2754 18.4865 13.2754 15.9584C13.2754 15.4505 13.4559 15.2812 13.9752 15.2812H14.5283C14.2503 16.9062 14.1858 18.5604 14.3365 20.2021C14.7452 24.6193 16.6301 28.7701 19.6874 31.985C20.704 33.0559 21.8403 34.0064 23.074 34.8179C24.0305 35.4316 25.0217 35.9893 26.0428 36.4883C25.5039 36.7231 24.9447 36.9082 24.3721 37.0413C24.2134 37.0862 24.0455 37.0862 23.8868 37.0413C22.435 36.6621 21.0519 36.0565 19.7888 35.2468C19.7059 35.195 19.6191 35.1497 19.5292 35.1114C19.5101 35.0753 19.4829 35.0443 19.4495 35.0207C19.4162 34.9972 19.3777 34.9818 19.3373 34.9759C18.1805 34.1387 17.1469 33.1433 16.2668 32.0189C15.7937 31.4179 15.3638 30.7843 14.98 30.1228Z" fill="#C5E4FE"/>
  <path d="M19.3594 35.0098C19.3998 35.0157 19.4382 35.031 19.4715 35.0545C19.5049 35.0781 19.5321 35.1091 19.5512 35.1452C19.4157 35.1113 19.3594 35.0888 19.3594 35.0098Z" fill="#6C94F7"/>
  <path d="M21.414 14.5032L21.4928 14.4355C22.2071 14.2916 22.901 14.0603 23.5588 13.747C23.7481 13.6526 23.9568 13.6035 24.1684 13.6035C24.38 13.6035 24.5887 13.6526 24.778 13.747C26.5023 14.4934 28.3289 14.9766 30.1967 15.1804C31.5936 15.2913 32.9953 15.329 34.3961 15.2933C34.9154 15.2933 35.0846 15.4626 35.0846 15.9818C35.0846 18.7131 35.0846 21.4444 35.0846 24.1757C35.0225 25.8181 34.639 27.4323 33.9557 28.9272C33.9132 29.0192 33.8757 29.1134 33.843 29.2093C33.3347 29.1758 32.8292 29.1079 32.3302 29.0062C31.4183 28.8478 30.5329 28.5629 29.6998 28.1597C29.8353 28.0243 29.9596 27.8776 30.1063 27.7421C30.6141 27.2589 31.0209 26.6796 31.303 26.0379C31.6874 25.2543 31.8363 24.3762 31.7318 23.5097C31.716 22.6775 31.4577 21.8679 30.9885 21.1803C30.5193 20.4926 29.8597 19.9568 29.0904 19.6385C28.4446 19.3849 27.7311 19.361 27.0697 19.5708H26.9115C26.0144 19.8222 25.1826 20.265 24.4732 20.8687C24.349 20.9703 24.2473 21.0606 24.0893 20.8687C23.4699 20.3522 22.7729 19.937 22.0236 19.6385C21.7389 18.7104 21.5643 17.752 21.5041 16.783C21.3912 16.0494 21.414 15.282 21.414 14.5032Z" fill="#FEFEFE"/>
  <path d="M21.4146 14.5039C21.4146 15.2827 21.4146 16.0501 21.4146 16.8289C21.4748 17.7978 21.649 18.7562 21.9338 19.6843L21.516 19.5828C21.0735 19.4438 20.6068 19.3992 20.1459 19.4517C19.6851 19.5042 19.2406 19.6526 18.8407 19.8875C18.4221 20.1025 18.0506 20.399 17.7482 20.7595C17.4458 21.12 17.2185 21.5372 17.0796 21.9868C16.742 22.9777 16.6867 24.0429 16.92 25.0634C17.1532 26.0839 17.6657 27.0194 18.4003 27.7654C20.1049 29.5938 21.9226 31.3205 23.6949 33.0925C23.751 33.161 23.8216 33.2162 23.9016 33.2541C23.9817 33.292 24.0691 33.3116 24.1577 33.3116C24.2462 33.3116 24.3337 33.292 24.4137 33.2541C24.4937 33.2162 24.5643 33.161 24.6204 33.0925L27.2621 30.4967L27.5669 30.2145C28.2555 29.5486 28.9329 28.8714 29.6102 28.1943C30.4433 28.5974 31.3285 28.8823 32.2403 29.0407C32.7394 29.1425 33.2449 29.2104 33.7531 29.2439C33.4662 29.9599 33.0866 30.6353 32.6243 31.2528C31.0712 33.5723 28.8681 35.3822 26.2911 36.4559C26.1895 36.4559 26.0769 36.5236 25.9753 36.5574C24.9542 36.0584 23.9627 35.5007 23.0062 34.8871C21.7725 34.0756 20.6362 33.125 19.6195 32.0542C16.5623 28.8392 14.6774 24.6884 14.2687 20.2712C14.118 18.6296 14.1824 16.9753 14.4605 15.3504C15.2394 15.3504 16.0071 15.3504 16.786 15.2827C18.2714 15.18 19.7449 14.9458 21.1888 14.5829L21.4146 14.5039Z" fill="#E9F6FE"/>
  <path d="M18.8535 19.8868C19.2534 19.6519 19.698 19.5035 20.1588 19.451C20.6196 19.3985 21.0863 19.4432 21.5288 19.5821L21.9466 19.6836C22.6959 19.9822 23.3932 20.3974 24.0126 20.9139C24.1706 21.0606 24.272 20.9139 24.3962 20.9139C25.1056 20.3102 25.9377 19.8673 26.8348 19.6159H26.9927C26.9927 19.6836 27.0605 19.7514 27.1057 19.8078C27.9746 20.9763 29.0401 21.9845 30.255 22.7874C30.6615 23.1402 31.1388 23.4019 31.6548 23.5549C31.7593 24.4213 31.6104 25.2995 31.226 26.0831C30.9439 26.7247 30.5371 27.304 30.0293 27.7872C29.8826 27.9227 29.7585 28.0694 29.6231 28.2048C28.9458 28.882 28.2684 29.5592 27.5797 30.2251L27.2749 30.5073C25.9429 29.7284 24.7206 28.7757 23.64 27.6744C22.5508 26.5968 21.5956 25.3917 20.7952 24.0854C19.9884 22.7653 19.3369 21.3564 18.8535 19.8868Z" fill="#9460AF"/>
  <path d="M31.6543 23.4985C31.1383 23.3455 30.661 23.0838 30.2545 22.731C29.0396 21.9282 27.9741 20.9199 27.1052 19.7514C27.1052 19.695 27.0373 19.6273 26.9922 19.5596C27.6536 19.3498 28.3671 19.3737 29.0129 19.6273C29.7822 19.9456 30.4418 20.4814 30.911 21.169C31.3802 21.8567 31.6385 22.6662 31.6543 23.4985Z" fill="#D0ABE3"/>
  <path d="M18.8512 19.8867C19.3386 21.3368 19.99 22.7266 20.7928 24.0289C21.5933 25.3352 22.5485 26.5403 23.6376 27.6179C24.7119 28.7343 25.9306 29.7022 27.2613 30.4959L24.6196 33.1482C24.5635 33.2167 24.4929 33.2719 24.4129 33.3098C24.3329 33.3477 24.2454 33.3673 24.1569 33.3673C24.0683 33.3673 23.9809 33.3477 23.9008 33.3098C23.8208 33.2719 23.7502 33.2167 23.6941 33.1482C21.9218 31.3762 20.1041 29.6495 18.3995 27.8211C17.6649 27.0751 17.1524 26.1396 16.9192 25.1191C16.6859 24.0986 16.7412 23.0334 17.0788 22.0425C17.2123 21.5816 17.4383 21.1529 17.743 20.7822C18.0477 20.4116 18.4248 20.1069 18.8512 19.8867Z" fill="#6F388C"/>
  <path d="M36.2258 37.6272C34.5659 39.6533 32.5733 41.3822 30.3331 42.7398H30.2204C28.3642 43.8488 26.3562 44.6814 24.2599 45.2116C23.8044 45.2719 23.3411 45.1973 22.9276 44.9971C18.5401 43.6874 14.6393 41.1071 11.7179 37.582H4.05273C6.29024 40.7973 9.27242 43.4237 12.7448 45.2375C16.2171 47.0513 20.0767 47.9986 23.9945 47.9986C27.9122 47.9986 31.7718 47.0513 35.2441 45.2375C38.7165 43.4237 41.6987 40.7973 43.9362 37.582L36.2258 37.6272Z" fill="#A3BECF"/>
  <path d="M11.7579 6.77148C13.256 9.49254 13.256 9.49254 15.8045 10.7949C13.6398 11.2884 12.3571 12.5645 11.8347 14.6719C11.2729 12.5927 10.0445 11.2434 7.90234 10.7499C10.0239 10.2132 11.2655 8.89766 11.7579 6.77148Z" fill="white"/>
  <path d="M39.4298 15.8008C40.7138 18.1331 40.7138 18.1331 42.8983 19.2494C41.0429 19.6725 39.9434 20.7662 39.4956 22.5726C39.0141 20.7904 37.9612 19.6339 36.125 19.2108C37.9435 18.7508 39.0077 17.6232 39.4298 15.8008Z" fill="white"/>
  <path d="M19.1368 37.2461C19.9928 38.801 19.9928 38.801 21.4491 39.5452C20.2122 39.8272 19.4792 40.5564 19.1807 41.7606C18.8596 40.5725 18.1577 39.8015 16.9336 39.5195C18.1459 39.2128 18.8554 38.4611 19.1368 37.2461Z" fill="white"/>
</svg>