<svg xmlns="http://www.w3.org/2000/svg" width="48" height="48" viewBox="0 0 48 48" fill="none">
  <rect width="48" height="48" rx="12" fill="#DDE2EC"/>
  <path d="M25.4724 46.4324C37.3216 46.4324 46.9273 36.8268 46.9273 24.9776C46.9273 13.1284 37.3216 3.52271 25.4724 3.52271C13.6233 3.52271 4.01758 13.1284 4.01758 24.9776C4.01758 36.8268 13.6233 46.4324 25.4724 46.4324Z" fill="#DDE2EC"/>
  <path d="M7.04492 37.179C9.0437 40.0559 11.709 42.4063 14.8134 44.0295C17.9177 45.6527 21.3688 46.5006 24.8719 46.5006C28.375 46.5006 31.826 45.6527 34.9303 44.0295C38.0346 42.4063 40.8715 40.2071 42.8703 37.3302L7.04492 37.179Z" fill="#A3BECF"/>
  <path d="M30.987 23.3027C31.1687 23.5403 31.1688 23.8758 31.4483 24.0435C31.5847 24.4295 31.8153 24.7753 32.1191 25.0497C32.1191 25.1895 32.2028 25.2733 32.2587 25.3711C32.7769 26.1165 33.2438 26.8964 33.6563 27.7051C33.95 28.3798 34.1023 29.1075 34.1036 29.8434C34.1036 31.5065 34.1036 33.1696 34.1036 34.8327H4.99219C4.99219 33.0019 4.99219 31.1851 4.99219 29.3543C5.07125 28.0085 5.46876 26.7008 6.15211 25.5388C6.58898 24.8303 6.98555 24.0978 7.34002 23.3447H7.77335H30.9171L30.987 23.3027ZM25.3967 28.893C24.7119 28.893 23.9993 28.8931 23.3983 29.0188C22.1964 29.1446 21.3661 29.7054 20.1642 29.7613C18.6164 29.8174 16.6608 29.9011 15.1183 29.7613C14.3217 29.7613 13.392 29.2986 12.5954 29.2567C12.2041 29.2567 12.552 29.3545 12.0908 29.2567C12.552 30.263 12.4132 30.8077 12.9023 31.758C12.9722 31.8838 13.0702 31.8839 13.1959 31.8839C13.7689 31.8839 14.3559 31.8839 14.9289 31.9677C15.5019 32.0516 15.7673 31.9677 16.1866 31.9677C17.3796 32.0934 18.5809 32.1214 19.7785 32.0516C21.176 31.9258 22.4616 31.8978 23.8033 31.8419C23.8958 31.8461 23.9871 31.8197 24.063 31.7666C24.1388 31.7135 24.195 31.6368 24.2226 31.5485C24.3904 31.1851 24.5862 30.8356 24.7399 30.4583C24.8936 30.081 25.285 29.5779 25.4527 28.9909L25.3967 28.893ZM26.1235 31.4506L28.2199 31.1571L30.7635 30.8077C30.9598 30.7893 31.1473 30.7187 31.3071 30.6031C31.4668 30.4876 31.5928 30.3315 31.6718 30.1509C31.8363 29.6995 31.8363 29.2046 31.6718 28.7533C31.6384 28.6137 31.5537 28.4916 31.4347 28.4114C31.3156 28.3312 31.1709 28.2986 31.029 28.3201C30.0647 28.4039 29.1002 28.4458 28.1359 28.5716C27.9706 28.5935 27.8202 28.6786 27.7166 28.8092C27.1467 29.6888 26.6334 30.6038 26.1795 31.5485L26.1235 31.4506ZM10.7502 31.4506C10.2743 30.4744 9.18975 30.1407 8.55876 29.2567C8.45883 29.1529 8.56092 28.9344 8.41742 28.921C7.53695 28.8092 7.07454 29.0188 6.18009 28.921C5.59311 28.921 5.65705 28.6697 5.53126 29.2567C5.32163 30.249 5.32757 30.64 6.18009 30.7518L8.97524 31.1431L10.7502 31.4506Z" fill="#42CE7E"/>
  <path d="M30.987 23.3027C31.1687 23.5403 31.1688 23.8758 31.4483 24.0435C31.5847 24.4295 31.8153 24.7753 32.1191 25.0497C32.1191 25.1895 32.2028 25.2733 32.2587 25.3711C32.7769 26.1165 33.2438 26.8964 33.6563 27.7051C33.95 28.3798 34.1023 29.1075 34.1036 29.8434C34.1036 31.5065 34.1036 33.1696 34.1036 34.8327H4.99219C4.99219 33.0019 4.99219 31.1851 4.99219 29.3543C5.07125 28.0085 5.46876 26.7008 6.15211 25.5388C6.58898 24.8303 6.98555 24.0978 7.34002 23.3447H7.77335H30.9171L30.987 23.3027ZM25.3967 28.893C24.7119 28.893 23.9993 28.8931 23.3983 29.0188C22.1964 29.1446 21.3661 29.7054 20.1642 29.7613C18.6164 29.8174 16.6608 29.9011 15.1183 29.7613C14.3217 29.7613 13.392 29.2986 12.5954 29.2567C12.2041 29.2567 12.552 29.3545 12.0908 29.2567C12.552 30.263 12.4132 30.8077 12.9023 31.758C12.9722 31.8838 13.0702 31.8839 13.1959 31.8839C13.7689 31.8839 14.3559 31.8839 14.9289 31.9677C15.5019 32.0516 15.7673 31.9677 16.1866 31.9677C17.3796 32.0934 18.5809 32.1214 19.7785 32.0516C21.176 31.9258 22.4616 31.8978 23.8033 31.8419C23.8958 31.8461 23.9871 31.8197 24.063 31.7666C24.1388 31.7135 24.195 31.6368 24.2226 31.5485C24.3904 31.1851 24.5862 30.8356 24.7399 30.4583C24.8936 30.081 25.285 29.5779 25.4527 28.9909L25.3967 28.893ZM26.1235 31.4506L28.2199 31.1571L30.7635 30.8077C30.9598 30.7893 31.1473 30.7187 31.3071 30.6031C31.4668 30.4876 31.5928 30.3315 31.6718 30.1509C31.8363 29.6995 31.8363 29.2046 31.6718 28.7533C31.6384 28.6137 31.5537 28.4916 31.4347 28.4114C31.3156 28.3312 31.1709 28.2986 31.029 28.3201C30.0647 28.4039 29.1002 28.4458 28.1359 28.5716C27.9706 28.5935 27.8202 28.6786 27.7166 28.8092C27.1467 29.6888 26.6334 30.6038 26.1795 31.5485L26.1235 31.4506ZM10.7502 31.4506C10.2743 30.4744 9.18975 30.1407 8.55876 29.2567C8.45883 29.1529 8.56092 28.9344 8.41742 28.921C7.53695 28.8092 7.07454 29.0188 6.18009 28.921C5.59311 28.921 5.65705 28.6697 5.53126 29.2567C5.32163 30.249 5.32757 30.64 6.18009 30.7518L8.97524 31.1431L10.7502 31.4506Z" fill="#42CE7E"/>
  <path d="M5.00664 34.8601H34.0902V36.6629C33.9365 37.0123 33.9364 37.4456 33.6429 37.7391C33.3494 37.7391 33.0561 37.7391 32.7486 37.7391H8.41681C8.13837 37.7737 7.85674 37.7737 7.5783 37.7391C7.00621 37.6552 6.47064 37.4072 6.03657 37.0252C5.6025 36.6432 5.28854 36.1436 5.13255 35.5868C5.11146 35.3604 5.05487 35.1388 4.96484 34.93L5.00664 34.8601Z" fill="#019F74"/>
  <path d="M4.99402 34.9302C5.08405 35.139 5.14064 35.3606 5.16172 35.587C5.31771 36.1438 5.63167 36.6434 6.06574 37.0254C6.49981 37.4074 7.03538 37.6554 7.60747 37.7393C7.88591 37.774 8.16754 37.774 8.44598 37.7393H32.7778C33.0853 37.7393 33.3786 37.7393 33.6721 37.7393C33.4972 38.0628 33.2585 38.3473 32.9702 38.5755C32.6819 38.8038 32.35 38.971 31.9951 39.067C31.3145 39.2622 30.6044 39.3331 29.8987 39.2766H7.16015C6.81076 39.2766 6.47536 39.2766 6.12596 39.2766C5.25231 39.2504 4.41803 38.9077 3.77813 38.3123C3.344 37.834 3.05325 37.2431 2.93945 36.6073V34.9302H4.99402Z" fill="#14512D"/>
  <path d="M4.99402 34.931H2.93945C2.93945 33.1701 2.93945 31.4231 2.93945 29.6621C2.98547 28.6182 3.32995 27.6093 3.93185 26.7551C4.29522 26.2101 4.63065 25.6511 4.99402 25.106C5.26383 24.8095 5.47269 24.4629 5.60887 24.0858C5.69448 24.034 5.7685 23.965 5.82621 23.8832C5.88393 23.8015 5.9241 23.7086 5.94427 23.6106C6.39149 22.5624 6.86667 21.5282 7.34184 20.4661C7.60034 19.6939 8.08249 19.016 8.72696 18.5184C9.37143 18.0207 10.1491 17.7257 10.9615 17.6709C13.8235 17.2821 16.7107 17.1093 19.5986 17.1538C22.0719 17.1765 24.5393 17.3961 26.9777 17.8107C27.5392 17.9018 28.0693 18.1307 28.5206 18.4771C28.9718 18.8235 29.3302 19.2764 29.5633 19.7953C30.1084 20.9413 30.5557 22.1292 31.0588 23.2892H30.2621C30.2043 23.0524 30.1101 22.8261 29.9826 22.6184C29.6648 21.6466 29.2478 20.7099 28.7386 19.8232C28.5249 19.4674 28.2347 19.1637 27.889 18.9341C27.5433 18.7044 27.151 18.5546 26.7402 18.4955C24.646 18.1533 22.5305 17.9572 20.4091 17.9086C18.3817 17.8362 16.3517 17.8828 14.3297 18.0483C13.7379 18.0581 13.1483 18.1236 12.5688 18.244L10.6821 18.4675C10.0909 18.5346 9.53119 18.7688 9.06834 19.1425C8.60548 19.5163 8.25869 20.0142 8.06861 20.5779C7.77512 21.3186 7.45362 21.9755 7.13217 22.7861C6.92254 23.3032 6.92254 23.3032 7.48157 23.3451C7.1271 24.0983 6.73053 24.8308 6.29366 25.5393C5.61031 26.7012 5.2128 28.009 5.13374 29.3547C5.03591 31.1855 5.13374 33.0023 5.13374 34.8332L4.99402 34.931Z" fill="#36BC6D"/>
  <path d="M2.93981 36.6077C3.0536 37.2435 3.34435 37.8344 3.77849 38.3127C4.41838 38.9081 5.25266 39.2507 6.12631 39.277C6.47571 39.277 6.81111 39.277 7.1605 39.277V41.7227C7.1605 42.2958 6.89499 42.5474 6.30801 42.5474H3.70854C3.60744 42.5577 3.5052 42.5459 3.40913 42.5127C3.31306 42.4796 3.22539 42.4259 3.15221 42.3553C3.07902 42.2848 3.02221 42.1992 2.98553 42.1045C2.94884 42.0097 2.93318 41.908 2.93981 41.8066C2.92583 40.0736 2.93981 38.3546 2.93981 36.6077Z" fill="#490B65"/>
  <path d="M29.898 39.2907C30.6037 39.3472 31.3139 39.2762 31.9944 39.081C32.3494 38.985 32.6812 38.8179 32.9696 38.5896C33.2579 38.3614 33.4965 38.0769 33.6714 37.7534C33.9649 37.4599 33.965 37.0266 34.1187 36.6772C34.1187 38.3823 34.1187 40.0873 34.1187 41.7923C34.1272 41.8954 34.1131 41.9992 34.0775 42.0963C34.0418 42.1934 33.9854 42.2815 33.9123 42.3546C33.8392 42.4278 33.7511 42.4841 33.654 42.5198C33.5569 42.5554 33.4531 42.5695 33.35 42.5611H30.6808C30.574 42.5724 30.4659 42.5594 30.3648 42.5232C30.2637 42.487 30.1722 42.4283 30.097 42.3517C30.0217 42.2751 29.9646 42.1825 29.9301 42.0808C29.8957 41.9791 29.8848 41.871 29.898 41.7644C29.898 40.9399 29.898 40.0733 29.898 39.2907Z" fill="#490B65"/>
  <path d="M5.60835 24.0852C5.47217 24.4623 5.26331 24.8089 4.9935 25.1054L2.57555 24.5465C2.1423 24.4486 1.98869 24.1551 2.00267 23.5961C1.98667 23.4098 2.043 23.2244 2.16013 23.0787C2.27727 22.9329 2.44612 22.838 2.63151 22.8135L4.3505 22.506C4.49865 22.471 4.6545 22.4898 4.79014 22.5589C4.92578 22.628 5.03245 22.7429 5.09125 22.8833C5.27294 23.3026 5.44064 23.6799 5.60835 24.0852Z" fill="#42CE7E"/>
  <path d="M25.4538 28.9912C25.2861 29.5782 24.9506 30.0673 24.741 30.6124C24.5314 31.1574 24.3915 31.3391 24.2237 31.7025C24.1961 31.7909 24.1399 31.8675 24.0641 31.9206C23.9882 31.9737 23.8969 32.0002 23.8044 31.9959C22.4068 31.9959 21.1212 32.0798 19.7796 32.2056C18.582 32.2755 17.3807 32.2474 16.1877 32.1218C15.7684 32.1218 15.3493 32.1218 14.93 32.1218C14.5107 32.1218 13.77 32.1218 13.197 32.0379C13.0713 32.0379 12.9733 32.0379 12.9034 31.9121C12.4702 30.9617 12.023 30.0254 11.5059 29.0192C11.9671 29.0192 12.3584 29.089 12.7497 29.1169C13.5463 29.1169 14.3429 29.2288 15.1395 29.2986C16.682 29.4385 18.2318 29.4805 19.7796 29.4245C20.9815 29.4245 22.1975 29.2987 23.3994 29.1729C24.1122 29.0471 24.769 29.0331 25.4538 28.9912Z" fill="#275143"/>
  <path d="M29.8976 22.6739C30.025 22.8817 30.1192 23.1081 30.177 23.3448H7.81585H7.38269C6.82366 23.3448 6.82366 23.3448 7.0333 22.7858C7.35474 22.0451 7.67624 21.3882 7.96973 20.5776C8.15982 20.0138 8.50643 19.516 8.96929 19.1422C9.43215 18.7685 9.99207 18.5343 10.5832 18.4672L12.4699 18.2437L12.2742 18.5372C11.9748 18.99 11.8223 19.5241 11.8373 20.0667C11.8523 20.6094 12.034 21.1343 12.358 21.5699C12.65 21.928 13.0225 22.2122 13.445 22.3992C13.8676 22.5862 14.3283 22.6708 14.7897 22.646L29.8976 22.6739Z" fill="#C0EBFA"/>
  <path d="M10.8772 31.5484L9.06031 31.2967L6.26516 30.9055C5.41264 30.7937 4.97936 30.0669 5.189 29.0746C5.31478 28.4877 5.53845 28.3339 6.12543 28.3899C7.01988 28.4877 7.91438 28.5156 8.79485 28.6274C8.93835 28.6408 9.07229 28.7053 9.17222 28.8091C9.81501 29.6737 10.3853 30.5899 10.8772 31.5484Z" fill="#DCF6FD"/>
  <path d="M29.8969 22.6741H14.8031C14.3416 22.6988 13.8809 22.6142 13.4584 22.4272C13.0358 22.2402 12.6633 21.9562 12.3713 21.598C12.0474 21.1624 11.8656 20.6375 11.8506 20.0949C11.8356 19.5522 11.9882 19.0181 12.2875 18.5652L12.4832 18.2718C13.0628 18.1515 13.6523 18.0859 14.2442 18.0761C16.2662 17.9107 18.2961 17.8639 20.3236 17.9363C22.445 17.9849 24.5603 18.1811 26.6545 18.5234C27.0653 18.5824 27.4579 18.7321 27.8036 18.9618C28.1493 19.1915 28.4396 19.4953 28.6532 19.8511C29.1642 20.7467 29.5808 21.6927 29.8969 22.6741Z" fill="#DEF7FE"/>
  <path d="M29.8418 26.0879C29.6224 25.8898 29.4559 25.64 29.3574 25.3612L29.7206 24.5236C29.7617 24.4135 29.8423 24.3225 29.9468 24.2684C30.0512 24.2144 30.1721 24.201 30.2858 24.231L31.4967 24.4429C31.6269 24.458 31.7469 24.5212 31.8328 24.6202C31.9187 24.7192 31.9643 24.8467 31.9609 24.9778C31.9609 25.3915 31.8702 25.6136 31.5573 25.6943C30.9922 25.8053 30.417 25.9567 29.8418 26.0879Z" fill="#04A075"/>
  <path d="M25.5527 30.7508C25.8984 30.0811 26.2859 29.4339 26.7132 28.8132C26.788 28.7189 26.8966 28.6574 27.016 28.6416C27.7123 28.5508 28.4087 28.5205 29.105 28.46C29.2075 28.4445 29.312 28.468 29.398 28.5259C29.4839 28.5839 29.5451 28.672 29.5692 28.7728C29.688 29.0987 29.688 29.4561 29.5692 29.782C29.5122 29.9124 29.4212 30.0251 29.3058 30.1085C29.1905 30.192 29.0548 30.243 28.9131 30.2563L27.0766 30.5085L25.5527 30.7508Z" fill="#DCF6FD"/>
  <g filter="url(#filter0_d_989_19783)">
    <path d="M41.5696 31.6991H23.4046C23.3541 31.6083 23.2633 31.6284 23.1927 31.5981C22.6025 31.4275 22.0849 31.0671 21.7201 30.5727C21.3552 30.0784 21.1635 29.4776 21.1744 28.8633C21.1744 24.3322 21.1744 19.7808 21.1744 15.2598V6.96444C21.167 6.58932 21.2366 6.21668 21.379 5.86953C21.5213 5.52239 21.7333 5.20811 22.0018 4.94611C22.1651 4.75599 22.3707 4.60677 22.602 4.51039C22.8333 4.414 23.0839 4.37314 23.3339 4.39108L24.2013 28.2477C24.2013 28.6514 23.4249 28.2376 23.8084 28.2376L37.3205 27.7431C37.492 27.7431 37.7241 27.8541 37.8251 27.7431L41.2266 24.8166C41.3266 24.7485 41.4012 24.6491 41.4385 24.534C41.5495 24.4129 41.4385 24.2716 41.4385 24.1304C41.4385 17.5506 41.4385 10.9708 41.4385 4.39108C41.6725 4.37623 41.9066 4.41481 42.1234 4.50398C42.3402 4.59315 42.534 4.73054 42.6898 4.9057C42.9703 5.1851 43.1903 5.51922 43.3361 5.88727C43.4819 6.25533 43.5504 6.64945 43.5374 7.04513V29.0349C43.5528 29.1926 43.5528 29.3514 43.5374 29.5092C43.4385 29.9864 43.2102 30.4273 42.8773 30.7833C42.5444 31.1393 42.1199 31.3968 41.6504 31.5275C41.6806 31.588 41.5393 31.5275 41.5696 31.6991Z" fill="#25A45E"/>
  </g>
  <path d="M33.1131 1C33.1131 1.10092 33.1634 1.10096 33.2139 1.11106C33.5599 1.22701 33.8734 1.42394 34.1279 1.68549C34.3825 1.94704 34.5706 2.26563 34.6771 2.6147C34.6771 2.77617 34.8083 2.80645 34.9597 2.80645H36.8066C37.2809 2.80645 37.4324 2.96792 37.4324 3.44223C37.4324 3.73488 37.4324 4.01744 37.4324 4.31009C37.4324 4.87523 37.4324 5.45045 37.4324 6.01559C37.4324 6.58072 37.2303 6.70181 36.7459 6.70181H28.2387C27.7644 6.70181 27.623 6.56053 27.623 6.07613C27.623 5.59173 27.623 4.89541 27.623 4.31009C27.623 4.01744 27.623 3.72479 27.623 3.44223C27.623 2.95783 27.7644 2.80645 28.2387 2.80645H30.0957C30.2168 2.80645 30.3177 2.80642 30.3581 2.65505C30.4475 2.29847 30.6272 1.97094 30.8799 1.70403C31.1327 1.43711 31.4499 1.23982 31.8011 1.1312L31.912 1.05045L33.1131 1Z" fill="#6F388C"/>
  <path d="M27.5928 4.30005C27.5928 4.88536 27.5928 5.48077 27.5928 6.06609C27.5928 6.65141 27.7339 6.69177 28.2082 6.69177H36.7356C37.22 6.69177 37.422 6.50003 37.422 6.00554C37.422 5.51105 37.422 4.86518 37.422 4.30005H41.5494C41.5494 10.8798 41.5494 17.4596 41.5494 24.0393C41.5494 24.1806 41.6099 24.3219 41.5494 24.443C40.3585 24.443 39.1576 24.443 37.9668 24.443C37.7246 24.443 37.7751 24.5944 37.7751 24.7256C37.7751 25.876 37.7751 27.0164 37.7751 28.1668H23.9294C23.5459 28.1668 23.4551 28.0659 23.4551 27.6623V4.31015L27.5928 4.30005ZM27.5119 17.3082H28.4706C28.5379 17.316 28.6061 17.3087 28.6702 17.2868C28.7343 17.2648 28.7925 17.2289 28.8409 17.1814C28.8893 17.134 28.9266 17.0764 28.9498 17.0128C28.973 16.9492 28.9817 16.8812 28.9752 16.8137C28.9752 16.1376 28.9752 15.4715 28.9752 14.7954C28.9816 14.7369 28.9748 14.6776 28.9552 14.622C28.9357 14.5665 28.904 14.516 28.8623 14.4744C28.8207 14.4327 28.7701 14.401 28.7145 14.3814C28.659 14.3619 28.5999 14.355 28.5413 14.3614H26.523C26.4648 14.3568 26.4065 14.365 26.3517 14.3852C26.297 14.4054 26.2471 14.4372 26.2059 14.4784C26.1647 14.5197 26.133 14.5693 26.1128 14.624C26.0926 14.6788 26.0846 14.7373 26.0891 14.7954V16.8137C26.0842 16.8817 26.0942 16.9498 26.1187 17.0134C26.1431 17.077 26.1812 17.1344 26.2303 17.1816C26.2794 17.2288 26.3385 17.2646 26.403 17.2865C26.4675 17.3083 26.5359 17.3158 26.6035 17.3082H27.5119ZM28.9752 23.3632C28.9752 23.0302 28.9752 22.7072 28.9752 22.354C28.9815 22.2942 28.9746 22.2336 28.9545 22.1768C28.9344 22.1201 28.9017 22.0686 28.8591 22.026C28.8166 21.9834 28.7651 21.9509 28.7084 21.9308C28.6516 21.9108 28.5911 21.9036 28.5312 21.91H26.5129C26.4522 21.902 26.3906 21.9079 26.3325 21.9272C26.2745 21.9465 26.2215 21.9788 26.1778 22.0216C26.1341 22.0643 26.1006 22.1165 26.08 22.1741C26.0594 22.2317 26.0522 22.2932 26.0588 22.354V24.3219C26.0504 24.3924 26.0582 24.4639 26.0817 24.5309C26.1053 24.5978 26.1439 24.6585 26.1946 24.7082C26.2452 24.7579 26.3068 24.7953 26.3742 24.8176C26.4416 24.8398 26.5133 24.8463 26.5836 24.8365C27.1891 24.8365 27.8045 24.8365 28.41 24.8365C28.4797 24.8481 28.5514 24.8432 28.6189 24.8223C28.6864 24.8013 28.7481 24.7649 28.799 24.7159C28.85 24.6669 28.8888 24.6067 28.9124 24.54C28.9359 24.4734 28.9436 24.4021 28.9348 24.332C28.9852 24.0191 28.9752 23.6861 28.9752 23.3632ZM26.099 19.5889V20.5376C26.099 20.8706 26.2607 21.0219 26.5836 21.0219H28.5009C28.5656 21.0323 28.6318 21.0272 28.6941 21.0071C28.7564 20.9869 28.8131 20.9523 28.8594 20.906C28.9057 20.8597 28.9403 20.8031 28.9604 20.7408C28.9806 20.6784 28.9856 20.6122 28.9752 20.5476C28.9752 19.9017 28.9752 19.266 28.9752 18.6302C28.9752 18.2972 28.8238 18.1559 28.5009 18.1458H26.5836C26.518 18.1376 26.4515 18.1445 26.389 18.1659C26.3265 18.1874 26.2696 18.2229 26.2229 18.2696C26.1762 18.3163 26.1406 18.3731 26.1192 18.4356C26.0977 18.4981 26.0908 18.5646 26.099 18.6302V19.5889ZM34.1723 17.066H38.0678C38.1894 17.0773 38.3106 17.0402 38.4051 16.9627C38.4995 16.8853 38.5596 16.7737 38.5724 16.6522C38.5611 16.5276 38.5064 16.4108 38.4179 16.3223C38.3294 16.2338 38.2126 16.1791 38.088 16.1678H30.3579C29.9845 16.1678 29.7624 16.3495 29.7725 16.6522C29.7826 16.955 29.9744 17.066 30.3478 17.066H34.1723ZM34.1723 20.0027H30.2568C30.1458 19.9883 30.0335 20.0185 29.9447 20.0866C29.8558 20.1546 29.7976 20.255 29.7826 20.3659C29.7594 20.4701 29.7753 20.5791 29.8274 20.6722C29.8795 20.7653 29.9643 20.8359 30.0652 20.8705C30.1723 20.8855 30.2808 20.8855 30.3879 20.8705H38.1183C38.2368 20.8511 38.3454 20.7931 38.4275 20.7055C38.5096 20.6179 38.5606 20.5056 38.5724 20.3862C38.5597 20.2702 38.504 20.1633 38.4162 20.0866C38.3283 20.01 38.2147 19.9691 38.0981 19.9724H34.1723V20.0027ZM32.154 19.2256H34.1723C34.2938 19.234 34.4139 19.1943 34.5064 19.115C34.5989 19.0357 34.6567 18.9232 34.667 18.8018C34.667 18.676 34.617 18.5553 34.5281 18.4664C34.4391 18.3774 34.3183 18.3275 34.1925 18.3275H30.2568C29.9137 18.3275 29.722 18.499 29.722 18.7917C29.722 19.0843 29.9137 19.2256 30.2467 19.2256H32.154ZM32.154 15.4513H34.0412C34.3742 15.4513 34.5963 15.2798 34.6064 15.0376C34.5936 14.8974 34.5259 14.7679 34.4182 14.6772C34.3105 14.5865 34.1715 14.5419 34.0311 14.5531H30.2568C30.1897 14.5445 30.1215 14.5503 30.0568 14.5703C29.9921 14.5902 29.9323 14.6238 29.8816 14.6687C29.8309 14.7136 29.7904 14.7689 29.7629 14.8308C29.7353 14.8927 29.7214 14.9598 29.722 15.0275C29.722 15.2899 29.9238 15.4513 30.2568 15.4513H32.154ZM32.154 22.9999H34.0412C34.3742 22.9999 34.5963 22.8283 34.6064 22.5861C34.5936 22.4459 34.5259 22.3165 34.4182 22.2258C34.3105 22.1351 34.1715 22.0905 34.0311 22.1017H30.2568C30.1893 22.0928 30.1205 22.0987 30.0556 22.1193C29.9906 22.1399 29.931 22.1746 29.8809 22.2208C29.8308 22.267 29.7915 22.3237 29.7658 22.3869C29.7401 22.45 29.7285 22.518 29.7321 22.5861C29.7321 22.8485 29.9339 22.9999 30.277 22.9999H32.154ZM32.0936 23.7769H30.2568C29.9137 23.7769 29.722 23.9283 29.722 24.1907C29.7197 24.259 29.7325 24.3268 29.7594 24.3896C29.7864 24.4523 29.8268 24.5083 29.8779 24.5536C29.929 24.5989 29.9896 24.6323 30.0551 24.6516C30.1206 24.6708 30.1894 24.6754 30.2568 24.665H33.9604C34.3136 24.665 34.5761 24.443 34.566 24.1806C34.5559 23.9182 34.3338 23.7769 33.9705 23.7769H32.0936Z" fill="#E3ECFA"/>
  <path d="M37.7246 28.1569C37.7246 27.0065 37.7246 25.8661 37.7246 24.7156C37.7246 24.5844 37.7248 24.4331 37.9165 24.4331C39.1074 24.4331 40.3081 24.4331 41.4989 24.4331C41.4616 24.5482 41.387 24.6476 41.287 24.7156L38.088 27.9147C37.9972 28.0459 37.8962 28.167 37.7246 28.1569Z" fill="#1A6A3E"/>
  <path d="M27.5119 17.3085H26.6136C26.5459 17.3161 26.4775 17.3086 26.413 17.2868C26.3485 17.2649 26.2894 17.2291 26.2403 17.1819C26.1912 17.1347 26.1531 17.0773 26.1287 17.0137C26.1042 16.9501 26.094 16.882 26.0989 16.814V14.7957C26.0943 14.7375 26.1026 14.679 26.1228 14.6243C26.143 14.5696 26.1747 14.52 26.2159 14.4787C26.2571 14.4375 26.3068 14.4057 26.3615 14.3855C26.4162 14.3653 26.4748 14.3571 26.533 14.3617H28.5513C28.6099 14.3553 28.669 14.3622 28.7245 14.3817C28.7801 14.4013 28.8307 14.433 28.8724 14.4747C28.914 14.5163 28.9457 14.5667 28.9652 14.6223C28.9848 14.6779 28.9916 14.7371 28.9852 14.7957C28.9852 15.4617 28.9852 16.1278 28.9852 16.814C28.9917 16.8814 28.983 16.9495 28.9598 17.0131C28.9366 17.0767 28.8993 17.1343 28.8509 17.1817C28.8025 17.2292 28.7443 17.2651 28.6802 17.2871C28.6161 17.309 28.5479 17.3163 28.4806 17.3085H27.5119Z" fill="#ACE2C2"/>
  <path d="M28.9752 23.3633C28.9752 23.6862 28.9752 24.0192 28.9752 24.3724C28.984 24.4426 28.9763 24.5138 28.9527 24.5805C28.9292 24.6471 28.8904 24.7073 28.8394 24.7563C28.7884 24.8053 28.7266 24.8418 28.6591 24.8627C28.5915 24.8837 28.5201 24.8886 28.4504 24.877C27.8449 24.877 27.2292 24.877 26.6237 24.877C26.5534 24.8868 26.482 24.8803 26.4146 24.858C26.3471 24.8357 26.2856 24.7983 26.2349 24.7486C26.1843 24.6989 26.1457 24.6382 26.1221 24.5713C26.0985 24.5043 26.0906 24.4328 26.0989 24.3623V22.3743C26.0923 22.3134 26.0997 22.2519 26.1204 22.1943C26.141 22.1367 26.1744 22.0846 26.2182 22.0418C26.2619 21.9991 26.3149 21.9668 26.3729 21.9475C26.431 21.9281 26.4926 21.9222 26.5533 21.9302H28.5716C28.6315 21.9239 28.692 21.931 28.7487 21.9511C28.8055 21.9712 28.857 22.0036 28.8995 22.0462C28.9421 22.0888 28.9746 22.1403 28.9946 22.1971C29.0147 22.2539 29.0219 22.3144 29.0156 22.3743C28.9853 22.7073 28.9752 23.0303 28.9752 23.3633Z" fill="#ACE2C2"/>
  <path d="M26.099 19.5888V18.5796C26.0908 18.514 26.0978 18.4474 26.1192 18.3849C26.1407 18.3224 26.1762 18.2656 26.223 18.2189C26.2697 18.1722 26.3265 18.1367 26.389 18.1153C26.4515 18.0938 26.5181 18.087 26.5837 18.0951H28.501C28.8239 18.0951 28.9753 18.2466 28.9753 18.5796C28.9753 19.2154 28.9753 19.8511 28.9753 20.497C28.9857 20.5616 28.9806 20.6278 28.9605 20.6901C28.9403 20.7524 28.9058 20.8091 28.8595 20.8554C28.8132 20.9017 28.7564 20.9363 28.6941 20.9565C28.6318 20.9766 28.5656 20.9817 28.501 20.9713H26.5837C26.2607 20.9713 26.1091 20.8199 26.099 20.4869V19.5888Z" fill="#ACE2C2"/>
  <path d="M34.1618 17.0657H30.337C29.9636 17.0657 29.7617 16.9142 29.7617 16.6519C29.7617 16.3895 29.9737 16.1675 30.3471 16.1675H38.0772C38.2019 16.1788 38.3186 16.2334 38.4071 16.322C38.4956 16.4105 38.5503 16.5272 38.5616 16.6519C38.5489 16.7733 38.4888 16.8849 38.3943 16.9624C38.2999 17.0398 38.1787 17.0769 38.057 17.0657H34.1618Z" fill="#ACE2C2"/>
  <path d="M34.1621 20.0026H38.0876C38.2042 19.9994 38.3178 20.0402 38.4057 20.1168C38.4936 20.1935 38.5493 20.3004 38.5619 20.4163C38.5501 20.5358 38.4991 20.6481 38.417 20.7357C38.3349 20.8233 38.2263 20.8814 38.1078 20.9008H30.3777C30.2706 20.9157 30.1618 20.9157 30.0547 20.9008C29.9538 20.8661 29.8691 20.7955 29.8169 20.7024C29.7648 20.6093 29.7489 20.5003 29.7721 20.3962C29.7872 20.2853 29.8454 20.1848 29.9342 20.1168C30.0231 20.0487 30.1354 20.0186 30.2464 20.0329L34.1621 20.0026Z" fill="#ACE2C2"/>
  <path d="M32.1745 19.2257H30.2572C29.9242 19.2257 29.7324 19.0542 29.7324 18.7918C29.7324 18.5294 29.9242 18.3276 30.2673 18.3276H34.1628C34.2886 18.3276 34.4092 18.3776 34.4981 18.4665C34.5871 18.5555 34.6371 18.6761 34.6371 18.8019C34.6268 18.9233 34.5689 19.0358 34.4764 19.1151C34.3839 19.1944 34.2642 19.2341 34.1426 19.2257H32.1745Z" fill="#ACE2C2"/>
  <path d="M32.2153 15.4511H30.2576C29.9245 15.4511 29.7227 15.2897 29.7227 15.0273C29.7221 14.9596 29.736 14.8925 29.7636 14.8306C29.7911 14.7687 29.8317 14.7134 29.8823 14.6685C29.933 14.6236 29.9928 14.59 30.0575 14.5701C30.1222 14.5501 30.1904 14.5443 30.2576 14.553H34.052C34.1924 14.5417 34.3314 14.5863 34.4391 14.677C34.5468 14.7677 34.6145 14.8972 34.6273 15.0374C34.6273 15.2796 34.3952 15.441 34.0621 15.4511H32.2153Z" fill="#ACE2C2"/>
  <path d="M32.2146 22.9993H30.3073C29.9642 22.9993 29.7624 22.848 29.7624 22.5856C29.7588 22.5175 29.7702 22.4495 29.7959 22.3863C29.8216 22.3232 29.8611 22.2665 29.9112 22.2203C29.9613 22.174 30.0209 22.1394 30.0859 22.1188C30.1508 22.0982 30.2196 22.0922 30.2871 22.1012H34.0917C34.2321 22.09 34.3711 22.1346 34.4788 22.2253C34.5865 22.316 34.6542 22.4454 34.667 22.5856C34.667 22.8278 34.4348 22.9993 34.1018 22.9993H32.2146Z" fill="#ACE2C2"/>
  <path d="M32.1549 23.7871H34.0119C34.3752 23.7871 34.5973 23.9385 34.6074 24.1908C34.6175 24.4431 34.355 24.6752 34.0018 24.6752H30.2578C30.1903 24.6856 30.1215 24.681 30.056 24.6618C29.9905 24.6425 29.93 24.6091 29.8789 24.5638C29.8278 24.5185 29.7873 24.4624 29.7604 24.3997C29.7334 24.337 29.7206 24.2691 29.7229 24.2008C29.7229 23.9385 29.9147 23.7871 30.2578 23.7871H32.1549Z" fill="#ACE2C2"/>
  <path d="M34.0106 10.7484C33.9955 10.5974 33.9955 10.4453 34.0106 10.2943C34.0106 10.1732 33.8795 9.97139 34.1318 9.94111C34.3841 9.91084 34.6565 9.88055 34.7574 10.1833C34.9089 10.5588 34.9089 10.9784 34.7574 11.3539C34.6738 11.4457 34.5662 11.5123 34.4467 11.5462C34.3272 11.5801 34.2007 11.5799 34.0813 11.5456C34.0309 11.5456 34.0813 11.4347 34.0813 11.3741L34.0106 10.7484Z" fill="#E3EAF7"/>
  <path d="M38.209 10.7485C38.1995 10.8951 38.176 11.0404 38.1385 11.1824C38.0679 11.3641 37.9567 11.5457 37.7448 11.5457C37.6443 11.5417 37.5477 11.5065 37.4681 11.445C37.3886 11.3835 37.3301 11.2988 37.3008 11.2026C37.2148 10.8923 37.2148 10.5644 37.3008 10.254C37.3271 10.1682 37.3789 10.0924 37.4492 10.0365C37.5194 9.98066 37.605 9.94742 37.6945 9.94116C37.8762 9.94116 37.977 10.0421 38.0577 10.1834C38.1629 10.3526 38.2154 10.5493 38.209 10.7485Z" fill="#E4E9F5"/>
  <path d="M30.0142 10.5026H29.1126C29.0962 10.3939 29.0626 10.2973 29.0118 10.2129C28.961 10.1272 28.8958 10.0543 28.8162 9.99415C28.7367 9.93404 28.6447 9.88799 28.5404 9.85602C28.4375 9.82404 28.3257 9.80805 28.2049 9.80805C27.9867 9.80805 27.7967 9.85858 27.6348 9.95962C27.4728 10.0594 27.3473 10.2052 27.2581 10.3971C27.1689 10.5876 27.1243 10.8191 27.1243 11.0916C27.1243 11.3717 27.1689 11.607 27.2581 11.7976C27.3487 11.9882 27.4749 12.1321 27.6368 12.2293C27.7987 12.3265 27.9861 12.3751 28.1987 12.3751C28.3181 12.3751 28.4286 12.3604 28.5301 12.331C28.6331 12.3015 28.7243 12.2587 28.8039 12.2024C28.8835 12.1449 28.9493 12.0752 29.0015 11.9933C29.055 11.9114 29.0921 11.8181 29.1126 11.7132L30.0142 11.717C29.9909 11.8974 29.9325 12.0713 29.8392 12.2389C29.7473 12.4052 29.6231 12.5542 29.4667 12.6859C29.3116 12.8164 29.1264 12.92 28.9109 12.9967C28.6969 13.0722 28.4547 13.1099 28.1843 13.1099C27.8084 13.1099 27.4722 13.0306 27.1758 12.872C26.8807 12.7134 26.6475 12.4838 26.4759 12.1832C26.3058 11.8827 26.2207 11.5188 26.2207 11.0916C26.2207 10.6631 26.3072 10.2986 26.4801 9.99799C26.653 9.69742 26.8876 9.46847 27.184 9.31114C27.4804 9.15254 27.8138 9.07324 28.1843 9.07324C28.4286 9.07324 28.655 9.10522 28.8636 9.16917C29.0735 9.23312 29.2595 9.32649 29.4214 9.44928C29.5833 9.57079 29.715 9.7198 29.8166 9.89631C29.9195 10.0728 29.9854 10.2749 30.0142 10.5026Z" fill="#25A45E"/>
  <path d="M31.3489 13.0562H30.3939L31.8491 9.12696H32.9977L34.4508 13.0562H33.4958L32.4398 10.0249H32.4069L31.3489 13.0562ZM31.2892 11.5117H33.5452V12.1602H31.2892V11.5117Z" fill="#25A45E"/>
  <path d="M35.0065 13.0562V9.12696H36.6696C36.988 9.12696 37.2597 9.18004 37.4847 9.2862C37.7111 9.39108 37.8834 9.54009 38.0014 9.73323C38.1207 9.92509 38.1804 10.1508 38.1804 10.4105C38.1804 10.6714 38.1201 10.8959 37.9993 11.0839C37.8785 11.2706 37.7036 11.4139 37.4744 11.5137C37.2466 11.6134 36.9708 11.6633 36.647 11.6633H35.5334V10.9956H36.5029C36.6731 10.9956 36.8144 10.9739 36.9269 10.9304C37.0394 10.8869 37.1231 10.8217 37.178 10.7347C37.2343 10.6477 37.2624 10.5397 37.2624 10.4105C37.2624 10.28 37.2343 10.17 37.178 10.0805C37.1231 9.99096 37.0388 9.92317 36.9249 9.87712C36.8123 9.8298 36.6703 9.80613 36.4988 9.80613H35.8978V13.0562H35.0065ZM37.283 11.2681L38.3307 13.0562H37.3468L36.3218 11.2681H37.283Z" fill="#25A45E"/>
  <defs>
    <filter id="filter0_d_989_19783" x="19.1738" y="4.38696" width="24.375" height="29.3123" filterUnits="userSpaceOnUse" color-interpolation-filters="sRGB">
      <feFlood flood-opacity="0" result="BackgroundImageFix"/>
      <feColorMatrix in="SourceAlpha" type="matrix" values="0 0 0 0 0 0 0 0 0 0 0 0 0 0 0 0 0 0 127 0" result="hardAlpha"/>
      <feOffset dx="-1" dy="1"/>
      <feGaussianBlur stdDeviation="0.5"/>
      <feComposite in2="hardAlpha" operator="out"/>
      <feColorMatrix type="matrix" values="0 0 0 0 0 0 0 0 0 0 0 0 0 0 0 0 0 0 0.25 0"/>
      <feBlend mode="normal" in2="BackgroundImageFix" result="effect1_dropShadow_989_19783"/>
      <feBlend mode="normal" in="SourceGraphic" in2="effect1_dropShadow_989_19783" result="shape"/>
    </filter>
  </defs>
</svg>